<!DOCTYPE svg PUBLIC "-//W3C//DTD SVG 20010904//EN" "http://www.w3.org/TR/2001/REC-SVG-20010904/DTD/svg10.dtd">
<svg version="1.0" xmlns="http://www.w3.org/2000/svg" width="248px" height="246px" viewBox="0 0 2480 2460" preserveAspectRatio="xMidYMid meet">
<g id="layer101" fill="#0d0d0d" stroke="none">
 <path d="M1067 2430 c-326 -38 -658 -248 -859 -542 -51 -76 -114 -207 -138 -288 -69 -232 -67 -543 5 -763 113 -347 436 -667 780 -775 135 -42 246 -55 430 -49 209 6 316 31 481 111 362 178 613 505 680 886 24 140 15 389 -20 523 -86 334 -332 630 -651 783 -125 60 -212 90 -300 104 -91 14 -320 20 -408 10z"/>
 </g>
<g id="layer102" fill="#272a2d" stroke="none">
 <path d="M1067 2430 c-330 -38 -671 -256 -864 -552 -128 -197 -183 -394 -183 -652 0 -215 36 -380 119 -544 143 -282 429 -530 716 -620 135 -42 246 -55 430 -49 209 6 316 31 481 111 374 183 633 532 685 923 18 135 6 365 -25 486 -86 334 -332 630 -651 783 -128 61 -183 80 -281 99 -92 18 -328 26 -427 15z m206 -728 c25 -26 26 -31 16 -63 -6 -19 -13 -40 -15 -48 -3 -11 -7 -11 -19 -1 -8 7 -15 8 -15 2 0 -5 6 -15 14 -21 8 -7 12 -21 9 -31 -6 -24 -11 -25 -37 -3 -18 15 -18 14 2 -8 25 -28 29 -59 8 -59 -7 0 -19 7 -26 15 -7 8 -17 15 -22 15 -6 0 -6 -6 1 -14 17 -20 -24 -32 -47 -14 -15 12 -16 11 -4 -4 20 -25 -21 -35 -56 -12 l-27 17 23 -25 c21 -23 21 -26 7 -38 -14 -12 -28 -2 -103 73 l-86 86 26 28 c43 45 132 94 205 114 95 25 115 24 146 -9z m37 13 c0 -8 -4 -15 -9 -15 -5 0 -14 7 -21 15 -10 13 -9 15 9 15 12 0 21 -6 21 -15z m149 -42 c23 -17 30 -20 21 -8 -13 16 -8 15 28 -6 52 -29 133 -107 163 -158 l21 -36 -34 30 c-18 16 -62 57 -98 90 -36 33 -15 8 47 -55 104 -107 113 -119 127 -176 35 -138 5 -295 -77 -406 l-21 -28 -43 42 c-24 23 -43 50 -43 60 0 22 -64 95 -91 103 -10 4 -19 13 -19 21 0 20 10 18 39 -8 l26 -23 -26 30 c-22 25 -25 35 -17 60 5 17 7 45 4 63 -5 30 -3 32 12 20 9 -7 4 2 -11 20 -15 19 -27 39 -27 46 0 8 -20 32 -45 55 -43 39 -45 44 -39 81 7 42 13 47 32 28 8 -8 12 -8 12 -1 0 6 -6 16 -14 22 -8 7 -12 21 -9 32 5 19 7 19 32 3 l26 -17 -23 26 c-25 26 -26 64 -2 59 10 -2 11 0 2 11 -11 13 -7 47 6 47 3 0 21 -12 41 -27z m-445 -234 c43 -41 48 -50 36 -63 -15 -19 -35 -7 -44 27 -3 13 -24 32 -50 45 -24 13 -56 37 -71 52 -24 25 -26 32 -15 45 13 16 24 8 144 -106z m-139 38 c-9 -5 -23 -6 -31 -3 -12 5 -13 10 -4 27 11 20 12 20 31 3 18 -16 18 -19 4 -27z m-25 -43 c0 -8 19 -26 43 -40 70 -44 117 -94 117 -127 0 -20 -4 -26 -12 -21 -10 6 -10 4 -2 -7 6 -8 21 -36 33 -63 17 -39 18 -47 5 -42 -9 3 -12 2 -9 -4 4 -6 -9 -29 -29 -50 -40 -45 -46 -82 -21 -130 63 -121 344 -162 488 -70 l45 28 26 -27 c26 -27 26 -28 6 -46 -17 -15 -22 -16 -37 -4 -15 12 -16 12 -10 -3 5 -14 -3 -23 -34 -39 -58 -29 -249 -38 -288 -13 -24 16 -25 16 -12 1 12 -15 11 -17 -5 -17 -36 0 -109 31 -133 56 -12 14 -29 23 -37 20 -8 -3 -38 18 -74 53 -103 101 -160 257 -145 397 4 40 12 67 20 70 8 3 11 12 8 20 -3 8 -2 22 1 31 6 14 16 8 59 -33 l52 -49 -52 55 c-43 45 -50 58 -42 73 8 14 14 16 25 6 8 -6 14 -18 14 -25z m170 -79 c6 -8 9 -23 5 -35 -7 -22 -7 -21 -36 6 -27 26 -28 29 -12 36 26 10 29 9 43 -7z m280 0 c16 -8 36 -25 44 -37 28 -40 15 -139 -20 -152 -19 -7 -17 9 3 30 11 10 18 32 18 55 0 53 -53 109 -104 109 -43 0 -98 -36 -107 -70 -3 -14 -8 -20 -11 -13 -7 19 16 53 50 73 38 24 87 26 127 5z m-157 -153 c6 -13 23 -30 37 -37 17 -10 20 -14 8 -15 -22 0 -68 56 -67 83 0 14 2 17 6 7 2 -8 10 -25 16 -38z"/>
 <path d="M1250 1655 c13 -14 26 -25 28 -25 3 0 -5 11 -18 25 -13 14 -26 25 -28 25 -3 0 5 -11 18 -25z"/>
 <path d="M1566 1496 c6 -17 -60 -60 -81 -53 -9 4 -16 -4 -20 -25 l-7 -30 -52 48 c-28 27 -15 12 29 -34 44 -45 81 -82 82 -82 7 0 2 10 -12 23 -13 13 -11 16 11 21 15 4 33 2 42 -6 15 -11 15 -11 4 4 -11 14 -10 18 5 26 13 8 23 6 37 -6 18 -16 19 -16 9 2 -8 14 -8 25 0 38 11 16 15 15 52 -20 22 -20 9 -4 -30 36 -38 39 -71 72 -72 72 -1 0 0 -6 3 -14z"/>
 <path d="M1520 875 c13 -14 26 -25 28 -25 3 0 -5 11 -18 25 -13 14 -26 25 -28 25 -3 0 5 -11 18 -25z"/>
 </g>
<g id="layer103" fill="#373f4f" stroke="none">
 <path d="M1067 2430 c-330 -38 -671 -256 -864 -552 -128 -197 -183 -394 -183 -652 0 -215 36 -380 119 -544 143 -282 429 -530 716 -620 135 -42 246 -55 430 -49 209 6 316 31 481 111 374 183 633 532 685 923 18 135 6 365 -25 486 -86 334 -332 630 -651 783 -128 61 -183 80 -281 99 -92 18 -328 26 -427 15z m239 -722 c-3 -13 -18 -71 -33 -130 -23 -94 -29 -108 -47 -108 -51 0 -101 -24 -146 -69 -76 -76 -88 -172 -34 -258 10 -16 11 -23 3 -23 -8 0 -8 -4 1 -15 11 -13 8 -15 -19 -15 -61 0 -88 -95 -43 -157 13 -19 50 -46 90 -65 63 -31 72 -33 177 -33 107 0 114 1 183 36 l72 35 26 -27 c14 -15 24 -31 21 -36 -11 -18 -133 -73 -197 -89 -110 -28 -295 3 -338 56 -9 11 -28 22 -41 25 -34 6 -123 96 -156 157 -37 67 -65 172 -65 241 0 70 26 182 52 219 10 14 18 29 18 33 0 14 74 102 113 134 48 39 167 97 212 104 17 2 59 5 94 6 61 1 63 0 57 -21z m199 -44 c79 -45 150 -124 196 -221 37 -77 42 -96 47 -178 5 -102 -9 -169 -58 -265 -42 -83 -50 -87 -93 -42 -21 21 -47 58 -60 82 -13 27 -30 46 -42 48 -11 2 -29 13 -41 23 -21 19 -21 20 -2 72 30 87 3 178 -71 237 l-38 31 23 87 c49 177 43 164 68 158 12 -3 44 -18 71 -32z m-190 -316 c75 -58 63 -163 -22 -203 -96 -46 -205 43 -173 140 26 79 131 114 195 63z"/>
 <path d="M862 1468 c-24 -24 -12 -47 41 -78 58 -33 79 -37 97 -15 20 24 2 50 -55 78 -63 31 -67 31 -83 15z"/>
 <path d="M1517 1448 c-50 -27 -58 -35 -55 -57 4 -38 38 -38 103 -1 55 32 67 54 43 78 -17 17 -26 15 -91 -20z"/>
 <path d="M1183 1340 c-13 -5 -23 -16 -23 -25 0 -8 -4 -15 -9 -15 -12 0 -21 -39 -11 -45 4 -3 6 -13 3 -23 -2 -10 4 -29 15 -42 22 -27 81 -36 125 -19 34 14 62 69 51 101 -4 13 -7 26 -6 29 7 29 -101 58 -145 39z"/>
 </g>
<g id="layer104" fill="#a95f20" stroke="none">
 <path d="M1067 2430 c-330 -38 -671 -256 -864 -552 -128 -197 -183 -394 -183 -652 0 -215 36 -380 119 -544 143 -282 429 -530 716 -620 135 -42 246 -55 430 -49 209 6 316 31 481 111 374 183 633 532 685 923 18 135 6 365 -25 486 -86 334 -332 630 -651 783 -128 61 -183 80 -281 99 -92 18 -328 26 -427 15z m243 -706 c0 -3 -14 -62 -32 -130 -27 -105 -35 -124 -51 -124 -65 0 -153 -54 -184 -113 -56 -110 -17 -243 88 -296 42 -21 42 -22 14 -20 -16 1 -63 1 -102 1 l-73 -2 0 -40 c0 -55 51 -111 128 -142 46 -18 77 -22 163 -23 103 0 109 1 177 36 l71 36 26 -27 c15 -16 24 -33 21 -39 -12 -19 -115 -69 -180 -86 -118 -32 -313 -2 -353 54 -8 12 -25 21 -38 21 -35 0 -128 97 -166 173 -43 84 -59 148 -59 237 0 263 218 488 473 489 42 1 77 -2 77 -5z m222 -76 c48 -30 138 -122 138 -139 0 -6 9 -22 20 -37 83 -113 81 -340 -5 -486 -42 -72 -46 -73 -99 -14 -56 63 -49 56 -109 110 l-48 43 16 39 c23 54 21 135 -4 184 -18 35 -65 84 -90 94 -5 1 3 50 18 108 15 58 31 117 35 133 l6 27 38 -15 c20 -9 58 -30 84 -47z m-222 -297 c14 -10 34 -35 44 -56 17 -35 18 -42 5 -79 -38 -108 -192 -114 -236 -9 -46 110 87 212 187 144z"/>
 <path d="M862 1468 c-24 -24 -12 -46 43 -78 58 -33 81 -35 98 -8 14 22 -4 43 -65 74 -54 28 -60 28 -76 12z"/>
 <path d="M1526 1452 c-55 -30 -72 -51 -63 -76 9 -23 42 -20 98 12 52 29 68 54 49 77 -17 20 -27 19 -84 -13z"/>
 </g>
<g id="layer105" fill="#676767" stroke="none">
 <path d="M1067 2430 c-330 -38 -671 -256 -864 -552 -128 -197 -183 -394 -183 -652 0 -215 36 -380 119 -544 143 -282 429 -530 716 -620 135 -42 246 -55 430 -49 209 6 316 31 481 111 374 183 633 532 685 923 18 135 6 365 -25 486 -86 334 -332 630 -651 783 -128 61 -183 80 -281 99 -92 18 -328 26 -427 15z m420 -644 c-6 -18 -57 -20 -57 -2 0 8 6 16 13 19 19 6 48 -4 44 -17z m-177 -62 c0 -3 -14 -62 -32 -130 -27 -105 -35 -124 -51 -124 -65 0 -153 -54 -184 -113 -56 -110 -17 -243 88 -296 42 -21 42 -22 14 -20 -16 1 -63 1 -102 1 l-73 -2 0 -40 c0 -55 51 -111 128 -142 46 -18 77 -22 163 -23 103 0 109 1 177 36 l71 36 26 -27 c15 -16 24 -33 21 -39 -12 -19 -115 -69 -180 -86 -118 -32 -313 -2 -353 54 -8 12 -25 21 -38 21 -35 0 -128 97 -166 173 -43 84 -59 148 -59 237 0 263 218 488 473 489 42 1 77 -2 77 -5z m283 -124 c29 -26 59 -61 67 -76 8 -16 23 -40 32 -54 81 -115 77 -340 -7 -484 -42 -72 -46 -73 -99 -14 -56 63 -49 56 -109 110 l-48 43 16 39 c23 54 21 135 -4 184 -18 35 -65 84 -90 94 -5 1 6 61 25 132 18 71 31 133 28 138 -14 22 144 -71 189 -112z m-848 -38 c78 -42 72 -106 -7 -66 -59 30 -87 54 -82 69 4 8 10 12 15 9 5 -3 9 0 9 5 0 16 10 13 65 -17z m565 -211 c14 -10 34 -35 44 -56 17 -35 18 -42 5 -79 -38 -108 -192 -114 -236 -9 -46 110 87 212 187 144z m414 -521 c68 -70 80 -78 100 -70 19 7 29 3 52 -21 23 -24 36 -29 76 -29 43 0 49 -3 63 -30 19 -37 19 -103 0 -140 -22 -42 -68 -62 -151 -66 -82 -4 -116 13 -140 72 -16 38 -18 102 -4 124 6 10 4 20 -5 30 -12 13 -7 15 43 12 l57 -3 -45 43 c-25 24 -69 65 -98 91 -46 42 -58 67 -33 67 4 0 42 -36 85 -80z m-744 -17 c0 -15 -64 -105 -68 -94 -5 14 45 101 58 101 6 0 10 -3 10 -7z m-40 -180 c27 -30 31 -42 26 -72 -8 -49 -42 -79 -98 -87 -43 -6 -49 -4 -77 24 -67 67 -23 172 72 172 39 0 49 -5 77 -37z"/>
 <path d="M862 1468 c-24 -24 -12 -46 43 -78 58 -33 81 -35 98 -8 14 22 -4 43 -65 74 -54 28 -60 28 -76 12z"/>
 <path d="M1526 1452 c-55 -30 -72 -51 -63 -76 9 -23 42 -20 98 12 52 29 68 54 49 77 -17 20 -27 19 -84 -13z"/>
 <path d="M1809 671 c-57 -58 -22 -146 59 -146 87 0 126 95 61 149 -41 35 -83 34 -120 -3z"/>
 </g>
<g id="layer106" fill="#3270b9" stroke="none">
 <path d="M1067 2430 c-330 -38 -671 -256 -864 -552 -128 -197 -183 -394 -183 -652 0 -215 36 -380 119 -544 143 -282 429 -530 716 -620 135 -42 246 -55 430 -49 209 6 316 31 481 111 374 183 633 532 685 923 18 135 6 365 -25 486 -86 334 -332 630 -651 783 -128 61 -183 80 -281 99 -92 18 -328 26 -427 15z m429 -376 c18 -14 18 -14 -6 -3 -31 14 -36 19 -24 19 6 0 19 -7 30 -16z m-6 -265 c0 -8 -41 -29 -56 -29 -10 0 -3 39 9 43 17 5 47 -3 47 -14z m-180 -70 c0 -6 -14 -65 -31 -129 l-32 -118 -39 -6 c-116 -19 -188 -102 -188 -216 0 -84 53 -161 132 -194 46 -20 128 -21 172 -2 34 14 34 14 82 -35 41 -41 54 -48 92 -51 l44 -3 -20 -25 c-19 -24 -21 -24 -39 -7 -17 15 -45 17 -256 17 -130 0 -237 -4 -237 -8 0 -14 43 -49 87 -71 24 -12 75 -26 115 -33 91 -14 209 7 271 48 l40 26 30 -30 c16 -16 27 -35 23 -40 -12 -20 -115 -69 -180 -87 -117 -32 -324 1 -364 57 -7 10 -22 18 -32 18 -30 0 -126 103 -161 173 -43 84 -59 148 -59 237 0 263 218 488 473 489 51 1 77 -3 77 -10z m106 2 c-3 -5 24 -23 61 -41 41 -20 91 -57 128 -93 33 -33 64 -60 68 -58 5 1 6 -3 2 -9 -4 -6 3 -26 14 -44 84 -135 82 -343 -4 -490 -44 -75 -41 -76 -155 39 l-103 103 16 35 c39 82 10 202 -62 254 -20 15 -37 28 -38 28 -2 1 13 59 32 130 19 70 34 131 33 134 -1 12 2 21 8 21 3 0 3 -4 0 -9z m-669 -160 c35 -19 54 -25 58 -17 3 6 3 -2 -1 -19 -10 -56 -26 -56 -107 -5 -32 20 -45 34 -41 45 3 8 10 12 15 9 5 -3 9 0 9 5 0 16 10 13 67 -18z m549 -201 c69 -34 92 -105 54 -167 -24 -40 -67 -63 -120 -63 -32 0 -48 7 -75 33 -68 62 -53 161 29 198 52 24 61 23 112 -1z m424 -526 c64 -64 79 -74 101 -70 20 4 33 -2 55 -25 23 -24 36 -29 75 -29 59 0 72 -15 76 -88 7 -99 -40 -149 -148 -158 -74 -6 -115 13 -149 68 -21 35 -27 112 -10 138 6 10 4 20 -5 30 -12 13 -7 15 43 12 l57 -3 -45 43 c-25 24 -69 65 -98 91 -46 42 -58 67 -34 67 4 0 41 -34 82 -76z m-740 -21 c0 -14 -64 -105 -68 -95 -3 11 21 66 40 90 11 13 28 16 28 5z m-54 -161 c84 -68 39 -182 -71 -182 -27 0 -44 8 -66 29 -65 65 -20 171 73 171 26 0 52 -7 64 -18z"/>
 <path d="M862 1468 c-27 -27 -13 -48 53 -80 60 -30 66 -31 81 -16 24 24 12 43 -48 77 -59 34 -69 36 -86 19z"/>
 <path d="M1520 1447 c-57 -34 -70 -60 -38 -80 13 -9 29 -4 70 18 71 38 80 52 52 79 -21 21 -22 21 -84 -17z"/>
 <path d="M1823 681 c-56 -35 -53 -115 7 -146 86 -44 170 58 108 129 -31 35 -75 42 -115 17z"/>
 </g>
<g id="layer107" fill="#267bc8" stroke="none">
 <path d="M1067 2430 c-330 -38 -671 -256 -864 -552 -128 -197 -183 -394 -183 -652 0 -215 36 -380 119 -544 143 -282 429 -530 716 -620 135 -42 246 -55 430 -49 209 6 316 31 481 111 374 183 633 532 685 923 18 135 6 365 -25 486 -86 334 -332 630 -651 783 -128 61 -183 80 -281 99 -92 18 -328 26 -427 15z m238 -371 c11 -17 -1 -21 -15 -4 -8 9 -8 15 -2 15 6 0 14 -5 17 -11z m196 -6 c13 -15 12 -15 -11 -3 -34 17 -36 20 -18 20 9 0 22 -7 29 -17z m-260 -9 c7 -9 22 -19 33 -23 16 -6 17 -9 4 -14 -10 -3 -27 6 -44 24 -15 16 -23 29 -17 29 6 0 17 -7 24 -16z m-98 -87 c6 -39 3 -40 -38 -8 -11 8 -6 0 11 -19 30 -34 53 -90 36 -90 -4 0 -28 20 -52 45 -24 24 -45 43 -47 41 -2 -2 21 -27 51 -56 42 -40 56 -60 56 -81 0 -40 10 -59 30 -59 37 0 46 10 42 45 -3 29 -1 34 12 29 19 -7 33 -47 17 -52 -22 -7 1 -22 25 -16 32 8 31 -1 -7 -146 l-32 -118 -39 -6 c-116 -19 -188 -102 -188 -216 0 -84 53 -161 132 -194 46 -20 128 -21 172 -2 34 14 34 14 82 -35 41 -41 54 -48 92 -51 l44 -3 -20 -25 c-19 -24 -21 -24 -39 -7 -17 15 -45 17 -256 17 -130 0 -237 -4 -237 -8 0 -14 43 -49 87 -71 24 -12 75 -26 115 -33 91 -14 209 7 271 48 l39 26 34 -33 c36 -35 36 -45 -4 -60 -19 -7 -22 -13 -14 -21 7 -7 12 -16 12 -20 0 -12 -48 -10 -55 2 -4 7 -11 7 -18 2 -24 -18 -136 -42 -198 -42 -36 0 -92 7 -124 16 -33 9 -69 17 -80 18 -11 0 -28 13 -37 29 -10 15 -26 27 -36 27 -10 0 -23 5 -30 12 -9 9 -16 8 -30 -5 -14 -13 -21 -14 -30 -5 -7 7 -12 8 -12 2 0 -5 5 -15 12 -22 16 -16 3 -15 -22 1 -17 10 -22 9 -30 -3 -5 -8 -12 -11 -17 -7 -4 5 -3 11 2 15 6 4 23 21 38 39 24 26 27 34 18 52 -15 27 -27 26 -67 -4 l-33 -25 -20 26 c-12 15 -21 30 -21 34 0 3 18 16 40 29 45 25 46 28 24 59 -14 21 -16 21 -52 6 -20 -9 -42 -18 -48 -20 -12 -5 -37 43 -29 55 2 5 26 14 52 21 26 8 42 15 35 18 -7 2 -10 14 -7 30 5 23 4 24 -4 7 -5 -11 -10 -14 -10 -7 -1 11 -12 12 -50 7 -47 -6 -49 -6 -57 22 -13 46 -12 48 56 53 65 5 65 5 68 38 3 32 3 32 -41 32 -63 0 -105 10 -111 27 -3 8 -1 11 4 8 6 -3 10 5 10 19 0 21 4 24 28 20 15 -2 42 -6 60 -7 17 -2 35 -7 40 -12 4 -5 1 -5 -7 0 -9 5 -12 4 -7 -3 10 -17 35 -3 42 24 5 17 -1 29 -22 47 l-28 24 22 8 c14 4 30 1 40 -6 14 -11 15 -11 5 1 -17 19 -16 31 1 24 8 -3 21 5 30 18 20 28 20 34 1 42 -11 4 -19 -3 -25 -19 -11 -29 -20 -31 -63 -9 -58 30 -86 54 -81 69 4 8 10 13 14 10 5 -3 10 0 12 7 3 8 23 1 61 -19 31 -17 58 -26 60 -20 2 6 12 5 27 -3 l25 -13 -24 26 c-13 15 -28 24 -33 21 -5 -3 -7 -2 -6 3 4 13 -35 52 -46 46 -6 -3 -8 -2 -3 2 4 5 -1 17 -10 28 -18 20 -18 20 10 2 20 -13 27 -14 27 -4 0 7 -12 26 -27 43 -16 17 -21 25 -12 18 9 -6 18 -10 21 -7 3 3 11 -1 18 -10 7 -8 9 -15 4 -15 -4 0 9 -18 31 -40 21 -22 36 -43 32 -47 -4 -3 0 -15 10 -25 15 -17 17 -17 35 -2 10 10 18 23 18 30 0 15 -30 33 -45 27 -6 -2 -24 10 -40 27 -16 16 -25 30 -20 30 5 0 -4 13 -20 30 -53 55 -16 44 44 -13 81 -77 91 -72 13 6 -48 48 -60 65 -50 75 9 9 8 16 -4 29 -8 10 -18 25 -22 33 -4 8 1 6 11 -6 10 -11 29 -20 42 -19 17 1 32 -10 56 -44 19 -25 32 -48 29 -50 -2 -3 -24 13 -47 35 -23 21 -8 4 35 -39 77 -78 77 -78 103 -61 14 9 25 19 25 21 0 3 -17 28 -37 57 -94 129 -92 126 -40 76 26 -24 47 -39 47 -32 0 7 -3 12 -7 12 -5 1 -33 24 -63 52 -30 28 -49 48 -42 44 7 -4 21 -4 33 -1 15 5 17 10 9 19 -8 10 -3 13 20 12 19 -1 32 -7 36 -18 8 -25 34 -23 29 2 -2 12 0 18 6 15 5 -4 7 -10 5 -14 -3 -4 19 -32 49 -61 30 -30 55 -50 55 -44 0 5 -19 29 -43 52 -26 26 -43 52 -45 69 -1 15 -7 32 -12 37 -17 17 -11 27 10 14 28 -18 49 3 29 29 -13 17 -13 17 13 0 15 -9 37 -17 49 -17 l22 0 -21 23 c-12 13 -22 27 -22 32 0 26 48 -45 53 -78z m98 33 c15 0 18 -9 16 -54 l-2 -55 -22 20 c-14 14 -22 36 -25 64 -2 28 0 41 6 35 6 -6 18 -10 27 -10z m247 -38 c-4 -2 -8 -12 -8 -22 0 -32 -16 -30 -51 6 l-34 35 36 -15 c45 -19 57 -10 24 16 -14 11 -25 24 -25 30 0 5 15 -3 33 -19 18 -15 29 -29 25 -31z m-74 -9 c43 -45 56 -76 39 -86 -5 -3 -30 14 -57 37 -45 39 -48 44 -36 66 11 20 10 22 -4 17 -10 -4 -15 -3 -11 3 11 18 23 11 69 -37z m-24 -58 c47 -47 50 -54 29 -52 -37 4 -67 24 -84 58 -13 24 -13 49 -2 49 2 0 27 -25 57 -55z m240 10 c25 -30 3 -25 -26 6 -22 24 -24 29 -8 21 11 -6 27 -18 34 -27z m-338 -73 c16 -17 18 -21 5 -16 -11 4 -17 1 -17 -7 0 -7 -13 0 -30 16 -21 20 -30 38 -30 59 l1 31 24 -30 c13 -16 34 -40 47 -53z m305 7 c-9 -24 -8 -32 5 -45 27 -27 43 -6 17 22 -12 13 -18 24 -12 24 6 0 16 -7 23 -15 7 -9 19 -14 26 -11 7 3 29 -14 49 -37 l36 -42 -33 -30 c-18 -16 -51 -44 -73 -62 l-40 -32 34 -35 c19 -19 38 -33 44 -29 5 3 7 -3 3 -14 -4 -12 1 -28 13 -41 15 -19 20 -20 30 -8 20 24 59 28 89 9 l27 -17 -23 26 c-23 25 -23 27 -5 36 28 15 36 13 71 -20 39 -38 43 -58 5 -29 -31 25 -37 22 -24 -12 11 -29 8 -33 -31 -38 -19 -3 -36 5 -60 26 l-33 30 28 -32 c29 -31 29 -31 7 -38 -14 -5 -29 -1 -43 12 -12 10 -17 11 -10 3 6 -8 14 -32 18 -53 7 -37 9 -39 39 -32 17 4 48 9 69 12 35 5 37 4 37 -20 0 -33 -6 -36 -68 -38 -40 -2 -53 -6 -57 -20 -9 -27 2 -39 37 -39 26 0 29 2 18 15 -7 9 -10 18 -7 21 3 3 13 -6 22 -20 10 -14 24 -26 31 -26 17 0 18 -19 4 -55 -10 -25 -13 -26 -59 -20 -47 6 -49 5 -55 -20 -8 -33 -5 -37 42 -50 41 -12 48 -23 29 -49 -12 -17 -15 -17 -52 -2 -21 9 -39 15 -40 14 -1 -2 -7 -13 -14 -25 -10 -19 -7 -24 22 -44 17 -12 34 -24 36 -25 2 -2 -4 -15 -14 -30 -16 -25 -16 -27 12 -57 18 -20 5 -13 -40 22 -50 38 -72 50 -81 42 -9 -8 -39 17 -116 94 l-103 103 16 35 c39 82 10 202 -62 254 -20 15 -37 28 -38 28 -2 1 13 59 32 130 19 71 32 132 29 136 -2 4 0 11 6 14 6 4 9 1 8 -5 -2 -6 14 -17 35 -25 21 -7 46 -20 56 -29 10 -9 21 -16 26 -16 5 0 20 -10 34 -22 l26 -23 -24 28 c-14 15 -20 27 -14 27 5 0 15 11 21 24 9 21 6 28 -29 62 -43 42 -47 52 -23 61 9 3 29 -7 52 -28 20 -19 30 -25 22 -14 -8 11 -25 29 -38 40 -22 19 -23 22 -8 34 9 7 16 22 16 32 0 17 1 18 19 3 15 -14 17 -21 8 -45z m-852 -39 c10 -11 15 -20 11 -20 -4 0 -16 9 -28 20 -12 11 -17 20 -11 20 5 0 18 -9 28 -20z m789 -43 c28 -28 41 -42 29 -32 -22 17 -24 17 -42 1 -27 -24 -53 -11 -40 21 14 38 11 43 -17 33 -34 -13 -34 -13 -34 9 0 21 17 31 39 23 8 -3 37 -28 65 -55z m-839 -58 c20 -24 20 -24 0 -9 -11 8 -33 28 -50 44 l-30 29 30 -21 c17 -11 39 -30 50 -43z m-59 -26 c15 -20 23 -33 16 -29 -13 8 -56 66 -49 66 3 0 17 -17 33 -37z m1214 12 c13 -14 21 -25 18 -25 -2 0 -15 11 -28 25 -13 14 -21 25 -18 25 2 0 15 -11 28 -25z m-15 -63 c-3 -3 -14 3 -25 13 -21 19 -21 19 -11 -7 8 -22 8 -26 -5 -21 -8 3 -24 -3 -35 -13 -15 -13 -22 -15 -31 -6 -17 17 -33 15 -19 -2 8 -10 8 -16 -2 -24 -13 -11 -43 -11 -52 1 -3 4 -3 6 0 4 2 -2 32 23 66 56 l62 58 28 -27 c16 -15 27 -30 24 -32z m-1115 29 c0 -5 -11 -8 -25 -8 -23 0 -24 1 -8 12 18 13 33 11 33 -4z m1196 -103 l29 -31 -32 22 c-35 23 -50 41 -35 41 4 0 21 -14 38 -32z m-1346 -23 c7 -8 17 -12 23 -8 6 3 7 1 3 -5 -8 -13 -39 -1 -51 18 -10 16 11 12 25 -5z m-35 -45 c10 -11 16 -20 13 -20 -3 0 -13 9 -23 20 -10 11 -16 20 -13 20 3 0 13 -9 23 -20z m193 -52 c19 -19 15 -50 -5 -46 -11 2 -17 11 -15 21 2 10 -6 21 -20 27 l-23 9 26 0 c14 1 30 -4 37 -11z m568 -58 c69 -34 92 -105 54 -167 -24 -40 -67 -63 -120 -63 -32 0 -48 7 -75 33 -68 62 -53 161 29 198 52 24 61 23 112 -1z m424 -526 c64 -64 79 -74 101 -70 20 4 33 -2 55 -25 23 -24 36 -29 75 -29 59 0 72 -15 76 -88 7 -99 -40 -149 -148 -158 -74 -6 -115 13 -149 68 -21 35 -27 112 -10 138 6 10 4 20 -5 30 -12 13 -7 15 43 12 l57 -3 -45 43 c-25 24 -69 65 -98 91 -46 42 -58 67 -34 67 4 0 41 -34 82 -76z m-740 -21 c0 -14 -64 -105 -68 -95 -3 11 21 66 40 90 11 13 28 16 28 5z m-54 -161 c84 -68 39 -182 -71 -182 -27 0 -44 8 -66 29 -65 65 -20 171 73 171 26 0 52 -7 64 -18z"/>
 <path d="M950 1872 c0 -9 74 -80 105 -102 11 -8 -7 14 -40 48 -62 64 -65 67 -65 54z"/>
 <path d="M1031 1742 c1 -41 12 -50 48 -38 29 10 31 13 17 25 -9 7 -14 16 -12 20 2 3 -9 7 -25 8 -22 2 -29 -2 -28 -15z"/>
 <path d="M1130 1730 c-8 -5 -10 -10 -5 -10 6 0 17 5 25 10 8 5 11 10 5 10 -5 0 -17 -5 -25 -10z"/>
 <path d="M862 1468 c-27 -27 -13 -48 53 -80 60 -30 66 -31 81 -16 24 24 12 43 -48 77 -59 34 -69 36 -86 19z"/>
 <path d="M1520 1447 c-57 -34 -70 -60 -38 -80 13 -9 29 -4 70 18 71 38 80 52 52 79 -21 21 -22 21 -84 -17z"/>
 <path d="M1823 681 c-56 -35 -53 -115 7 -146 86 -44 170 58 108 129 -31 35 -75 42 -115 17z"/>
 </g>
<g id="layer108" fill="#d77426" stroke="none">
 <path d="M1189 2435 c-4 -3 -33 -7 -65 -9 -33 -3 -66 -7 -74 -9 -59 -18 -195 -45 -203 -40 -6 3 -7 1 -4 -4 4 -7 -11 -13 -38 -17 -24 -4 -47 -11 -50 -17 -4 -5 -11 -7 -16 -4 -5 4 -9 1 -9 -4 0 -6 -3 -10 -7 -9 -13 3 -65 -24 -149 -79 -301 -194 -491 -484 -543 -830 -26 -173 -8 -419 44 -576 102 -313 370 -603 683 -737 132 -57 253 -82 419 -88 246 -8 400 21 588 113 371 179 634 533 686 924 18 129 6 363 -25 481 -51 203 -171 409 -326 559 -165 160 -430 301 -615 326 -123 17 -288 28 -296 20z m172 -280 c21 -16 44 -25 61 -23 16 2 39 -7 57 -20 17 -12 35 -22 41 -22 5 0 10 -5 10 -11 0 -5 4 -7 10 -4 6 4 7 -2 1 -18 -5 -14 -6 -29 -3 -33 4 -5 -1 -1 -10 9 -9 10 -18 17 -20 16 -7 -4 -48 13 -48 20 0 6 -65 8 -106 2 -6 0 -28 -16 -49 -35 -39 -36 -61 -99 -50 -140 5 -17 0 -15 -25 12 -21 23 -30 42 -30 65 0 18 -6 67 -13 110 -14 79 -12 93 13 76 20 -12 63 -12 55 1 -8 13 8 13 21 1 5 -5 27 -12 49 -16 l40 -6 -25 20 c-36 29 -21 26 21 -4z m-230 -26 c4 -19 10 -74 13 -122 6 -93 6 -94 -39 -58 -11 8 -6 0 12 -19 31 -35 54 -90 36 -90 -5 0 -29 20 -53 45 -24 24 -45 43 -47 41 -2 -2 20 -27 50 -55 46 -43 56 -59 62 -96 5 -35 10 -45 25 -45 40 0 48 9 39 48 -4 20 -6 38 -5 40 2 1 19 -13 37 -33 18 -19 38 -35 43 -35 6 0 -10 21 -36 48 -43 44 -70 102 -49 102 6 0 18 -12 28 -26 10 -14 32 -40 49 -58 25 -26 29 -36 23 -61 -4 -16 -22 -87 -39 -156 l-32 -127 -40 -6 c-116 -19 -188 -102 -188 -216 0 -84 53 -161 132 -194 46 -20 128 -21 172 -2 34 14 34 14 82 -35 41 -41 54 -48 92 -51 l44 -3 -20 -25 c-19 -24 -21 -24 -39 -7 -17 15 -45 17 -256 17 -130 0 -237 -4 -237 -8 0 -14 43 -49 87 -71 24 -12 75 -26 115 -33 91 -14 209 7 271 48 l39 26 34 -33 c18 -18 31 -36 28 -41 -3 -5 2 -15 12 -22 16 -12 15 -14 -10 -18 -18 -4 -29 -1 -33 8 -3 8 -10 11 -15 8 -5 -4 5 -21 23 -40 31 -32 32 -34 10 -34 -12 0 -37 11 -55 25 -18 14 -36 21 -42 16 -19 -17 -133 -41 -195 -41 -36 0 -92 7 -124 16 -33 9 -69 17 -80 18 -11 0 -28 13 -37 28 -10 16 -26 28 -36 28 -10 0 -24 6 -31 13 -10 10 -15 8 -26 -7 -12 -16 -17 -17 -30 -6 -17 14 -21 0 -5 -16 7 -7 4 -19 -10 -37 -21 -27 -54 -36 -65 -17 -3 5 -12 7 -19 4 -22 -8 -30 16 -11 30 16 11 15 14 -9 29 -25 17 -27 17 -55 -4 -26 -19 -34 -21 -72 -11 -24 6 -47 8 -52 5 -8 -5 -36 24 -37 39 0 4 59 37 130 74 72 37 130 70 130 73 0 4 -7 17 -16 29 l-16 23 -133 -70 -133 -70 -11 31 c-8 21 -8 35 -1 42 5 5 10 18 10 29 0 12 13 24 40 34 28 11 39 21 35 31 -3 7 -5 18 -5 24 0 6 -12 8 -29 5 -26 -5 -30 -2 -43 32 -11 29 -23 39 -49 47 -19 5 -35 17 -37 27 -3 15 11 17 162 17 l166 0 0 30 0 30 -165 0 -166 0 3 65 c3 59 5 64 23 58 10 -3 31 -7 45 -8 15 -1 33 -5 40 -10 8 -5 16 -1 22 10 9 15 13 14 44 -16 19 -18 34 -30 34 -26 0 3 -19 24 -42 46 -29 27 -59 44 -91 52 -40 9 -48 15 -46 33 2 11 -3 32 -10 46 -11 21 -11 23 0 13 22 -21 32 -15 27 16 -2 17 -1 28 4 25 4 -3 8 0 8 6 0 22 29 20 65 -5 33 -22 38 -30 38 -63 0 -26 -4 -36 -14 -34 -9 2 -7 -4 5 -17 10 -11 22 -19 26 -18 4 1 9 -2 9 -8 2 -14 69 -82 106 -108 26 -19 28 -19 15 -2 -8 10 -31 34 -50 52 l-35 32 31 1 c24 0 40 -9 63 -35 17 -20 31 -30 31 -23 0 6 -12 24 -26 39 -26 27 -26 27 -4 34 12 4 28 1 38 -6 14 -11 15 -11 5 1 -17 19 -16 31 1 24 8 -3 21 5 30 18 20 28 20 34 1 42 -11 4 -19 -3 -25 -19 -11 -29 -20 -31 -63 -9 -58 30 -86 54 -81 69 4 8 10 13 14 10 5 -3 10 0 12 7 3 8 23 1 61 -19 31 -17 58 -26 60 -20 2 6 12 5 27 -3 l25 -13 -24 26 c-13 15 -28 24 -33 21 -5 -3 -7 -2 -6 3 4 12 -34 53 -44 47 -5 -3 -7 0 -6 6 2 6 -13 23 -32 38 l-35 26 23 -25 c12 -14 22 -28 22 -32 0 -13 -47 -2 -70 17 l-25 21 18 -21 c27 -32 1 -37 -55 -10 -44 21 -88 56 -71 56 4 0 1 5 -7 11 -12 8 -11 9 6 4 23 -6 42 19 24 30 -6 4 -10 11 -10 17 0 7 5 6 14 -1 20 -17 41 19 23 39 -16 19 43 -18 71 -43 l22 -20 0 20 c0 11 -7 26 -15 33 -9 7 -13 15 -10 18 3 3 0 11 -6 18 -8 10 -6 20 9 38 34 44 78 92 90 100 7 4 42 -41 97 -124 47 -72 85 -134 85 -138 0 -4 -4 -2 -8 3 -4 6 -32 33 -63 60 -30 28 -15 11 33 -38 88 -87 88 -87 113 -71 14 9 22 21 18 28 -4 6 -29 41 -55 79 -26 37 -48 70 -48 74 0 4 18 -11 40 -32 22 -21 40 -36 40 -32 0 11 -82 82 -91 80 -4 -2 -33 33 -63 77 -35 51 -50 80 -40 80 7 0 14 3 14 8 0 4 21 19 47 32 26 14 54 31 61 38 7 6 21 12 30 12 9 0 30 7 46 15 15 8 37 15 47 15 13 0 17 5 12 18 -6 15 -5 15 10 4 18 -15 61 -7 51 10 -4 6 -1 9 7 6 7 -2 16 -20 20 -39z m563 -178 c-8 -36 13 -52 33 -25 13 18 16 17 48 -21 19 -22 45 -50 57 -63 l23 -23 -40 -36 c-22 -19 -79 -68 -126 -108 l-87 -73 24 -28 c13 -16 23 -25 24 -20 0 5 7 3 15 -4 9 -7 13 -21 10 -30 -3 -10 2 -25 10 -34 20 -19 15 -19 55 0 31 16 35 16 64 -1 l31 -18 -23 26 c-23 25 -23 26 -4 36 11 6 22 7 26 4 3 -4 1 8 -5 25 -13 38 -43 50 -69 27 -15 -14 -21 -14 -39 -3 -22 14 -27 24 -12 30 7 2 137 117 176 155 10 10 17 8 30 -7 20 -22 7 -28 -14 -7 -11 10 -13 9 -8 -5 3 -9 0 -30 -8 -45 -8 -15 -15 -47 -16 -71 -2 -28 -6 -39 -13 -32 -19 19 -29 10 -11 -10 19 -21 45 -27 45 -10 0 6 13 1 28 -10 16 -12 39 -22 52 -23 14 -1 37 -15 51 -32 32 -36 29 -48 -4 -17 l-24 22 4 -27 c4 -28 3 -28 -93 -51 l-98 -22 -35 32 c-35 32 -35 32 -8 2 15 -16 27 -33 27 -37 0 -14 -44 -7 -64 11 -13 11 -17 11 -9 2 6 -8 14 -30 18 -47 3 -18 10 -35 14 -37 4 -3 66 10 138 28 l131 32 6 -35 c11 -70 11 -71 -44 -71 -49 0 -50 -1 -50 -30 0 -29 1 -30 50 -30 48 0 50 -1 50 -27 0 -29 -15 -102 -22 -109 -2 -2 -57 10 -122 26 -65 17 -122 30 -126 30 -13 0 -22 -52 -10 -60 6 -3 61 -19 123 -35 61 -15 114 -29 116 -31 4 -3 -30 -94 -36 -94 -2 0 -27 12 -55 26 -34 17 -54 22 -61 15 -14 -14 16 -58 54 -79 31 -18 38 -49 13 -59 -8 -3 -13 -12 -10 -19 6 -16 -10 -19 -19 -4 -3 6 -15 10 -27 10 -15 0 -18 -4 -14 -16 5 -13 4 -14 -7 -6 -8 7 -16 10 -18 8 -2 -3 -38 24 -78 60 -51 44 -78 61 -86 54 -8 -6 -43 23 -115 95 l-103 103 16 35 c39 82 10 202 -62 254 -20 15 -37 28 -38 28 -2 1 13 59 32 130 19 71 32 132 29 136 -2 4 0 11 6 14 6 4 9 1 8 -7 -2 -8 8 -14 23 -16 21 -2 28 2 33 22 3 13 9 31 12 40 5 14 2 15 -21 6 -35 -13 -35 -13 -35 10 0 11 6 21 13 21 20 2 42 -3 47 -10 3 -4 28 -27 55 -51 l50 -44 -44 46 c-40 42 -47 68 -18 68 6 0 27 -15 46 -32 24 -24 30 -26 18 -10 -8 13 -25 31 -37 39 -21 14 -21 16 -3 35 13 15 18 37 18 96 0 44 6 87 13 100 l13 23 49 -41 c43 -36 49 -45 44 -69z m-214 23 c20 -22 21 -25 6 -20 -15 5 -17 4 -7 -8 11 -13 6 -46 -7 -46 -4 0 -27 19 -52 43 l-45 42 43 -45 c37 -40 56 -90 35 -90 -5 0 -32 22 -61 49 -62 57 -65 80 -12 97 46 15 69 10 100 -22z m-90 -89 c47 -47 50 -54 29 -52 -37 4 -67 24 -84 58 -13 24 -13 49 -2 49 2 0 27 -25 57 -55z m319 -309 c9 -10 8 -16 -4 -26 -21 -17 -51 6 -34 26 6 8 15 14 19 14 4 0 13 -6 19 -14z m-413 -216 c69 -34 92 -105 54 -167 -24 -40 -67 -63 -120 -63 -32 0 -48 7 -75 33 -68 62 -53 161 29 198 52 24 61 23 112 -1z m424 -526 c64 -64 79 -74 101 -70 20 4 33 -2 55 -25 23 -24 36 -29 75 -29 59 0 72 -15 76 -88 7 -99 -40 -149 -148 -158 -74 -6 -115 13 -149 68 -21 35 -27 112 -10 138 6 10 4 20 -5 30 -12 13 -7 15 43 12 l57 -3 -45 43 c-25 24 -69 65 -98 91 -46 42 -58 67 -34 67 4 0 41 -34 82 -76z m-740 -21 c0 -14 -64 -105 -68 -95 -3 11 21 66 40 90 11 13 28 16 28 5z m-54 -161 c84 -68 39 -182 -71 -182 -27 0 -44 8 -66 29 -65 65 -20 171 73 171 26 0 52 -7 64 -18z"/>
 <path d="M1039 1857 c36 -37 67 -64 70 -62 6 7 -66 81 -104 107 -16 12 -1 -9 34 -45z"/>
 <path d="M950 1872 c0 -9 74 -80 105 -102 11 -8 -7 14 -40 48 -62 64 -65 67 -65 54z"/>
 <path d="M772 1675 c59 -60 110 -107 113 -103 3 3 -45 52 -107 108 l-113 104 107 -109z"/>
 <path d="M800 1714 c30 -30 64 -60 75 -66 11 -6 -9 19 -45 56 -35 36 -69 66 -74 66 -6 0 14 -25 44 -56z"/>
 <path d="M862 1468 c-27 -27 -13 -48 53 -80 60 -30 66 -31 81 -16 24 24 12 43 -48 77 -59 34 -69 36 -86 19z"/>
 <path d="M860 921 c0 -5 7 -15 17 -22 15 -13 15 -12 4 9 -12 23 -21 28 -21 13z"/>
 <path d="M840 871 c0 -5 5 -13 10 -16 6 -3 10 -2 10 4 0 5 -4 13 -10 16 -5 3 -10 2 -10 -4z"/>
 <path d="M1520 1447 c-57 -34 -70 -60 -38 -80 13 -9 29 -4 70 18 71 38 80 52 52 79 -21 21 -22 21 -84 -17z"/>
 <path d="M1770 1296 c0 -2 7 -9 15 -16 9 -7 15 -8 15 -2 0 5 -7 12 -15 16 -8 3 -15 4 -15 2z"/>
 <path d="M1823 681 c-56 -35 -53 -115 7 -146 86 -44 170 58 108 129 -31 35 -75 42 -115 17z"/>
 </g>
<g id="layer109" fill="#4978b1" stroke="none">
 <path d="M1189 2435 c-4 -3 -33 -7 -65 -9 -33 -3 -66 -7 -74 -9 -59 -18 -195 -45 -203 -40 -6 3 -7 1 -4 -4 4 -7 -11 -13 -38 -17 -24 -4 -47 -11 -50 -17 -4 -5 -11 -7 -16 -4 -5 4 -9 1 -9 -4 0 -6 -3 -10 -7 -9 -13 3 -65 -24 -149 -79 -301 -194 -491 -484 -543 -830 -26 -173 -8 -419 44 -576 102 -313 370 -603 683 -737 132 -57 253 -82 419 -88 246 -8 400 21 588 113 371 179 634 533 686 924 18 129 6 363 -25 481 -51 203 -171 409 -326 559 -165 160 -430 301 -615 326 -123 17 -288 28 -296 20z m172 -280 c21 -16 44 -25 61 -23 16 2 39 -7 57 -20 17 -12 35 -22 41 -22 5 0 10 -5 10 -11 0 -5 4 -7 10 -4 6 4 7 -2 1 -18 -5 -14 -6 -29 -3 -33 4 -5 -1 -1 -10 9 -9 10 -18 17 -20 16 -7 -4 -48 13 -48 20 0 6 -65 8 -106 2 -6 0 -28 -16 -49 -35 -39 -36 -61 -99 -50 -140 5 -17 0 -15 -25 12 -21 23 -30 42 -30 65 0 18 -6 67 -13 110 -14 79 -12 93 13 76 20 -12 63 -12 55 1 -8 13 8 13 21 1 5 -5 27 -12 49 -16 l40 -6 -25 20 c-36 29 -21 26 21 -4z m-230 -26 c4 -19 10 -74 13 -122 6 -93 6 -94 -39 -58 -11 8 -6 0 12 -19 31 -35 54 -90 36 -90 -5 0 -29 20 -53 45 -24 24 -45 43 -47 41 -2 -2 20 -27 50 -55 46 -43 56 -59 62 -96 5 -35 10 -45 25 -45 40 0 48 9 39 48 -4 20 -6 38 -5 40 2 1 19 -13 37 -33 18 -19 38 -35 43 -35 6 0 -10 21 -36 48 -43 44 -70 102 -49 102 6 0 18 -12 28 -26 10 -14 32 -40 49 -58 25 -26 29 -36 23 -61 -4 -16 -22 -87 -39 -156 l-32 -127 -40 -6 c-116 -19 -188 -102 -188 -216 0 -84 53 -161 132 -194 46 -20 128 -21 172 -2 34 14 34 14 82 -35 41 -41 54 -48 92 -51 l44 -3 -20 -25 c-19 -24 -21 -24 -39 -7 -17 15 -45 17 -256 17 -130 0 -237 -4 -237 -8 0 -14 43 -49 87 -71 24 -12 75 -26 115 -33 91 -14 209 7 271 48 l39 26 34 -33 c18 -18 31 -36 28 -41 -3 -5 2 -15 12 -22 16 -12 15 -14 -10 -18 -18 -4 -29 -1 -33 8 -3 8 -10 11 -15 8 -5 -4 5 -21 23 -40 31 -32 32 -34 10 -34 -12 0 -37 11 -55 25 -18 14 -36 21 -42 16 -19 -17 -133 -41 -195 -41 -36 0 -92 7 -124 16 -33 9 -69 17 -80 18 -11 0 -28 13 -37 28 -10 16 -26 28 -36 28 -10 0 -24 6 -31 13 -10 10 -15 8 -26 -7 -12 -16 -17 -17 -30 -6 -17 14 -21 0 -5 -16 7 -7 4 -19 -10 -37 -21 -27 -54 -36 -65 -17 -3 5 -12 7 -19 4 -22 -8 -30 16 -11 30 16 11 15 14 -9 29 -25 17 -27 17 -55 -4 -26 -19 -34 -21 -72 -11 -24 6 -47 8 -52 5 -8 -5 -36 24 -37 39 0 4 59 37 130 74 72 37 130 70 130 73 0 4 -7 17 -16 29 l-16 23 -133 -70 -133 -70 -11 31 c-8 21 -8 35 -1 42 5 5 10 18 10 29 0 12 13 24 40 34 28 11 39 21 35 31 -3 7 -5 18 -5 24 0 6 -12 8 -29 5 -26 -5 -30 -2 -43 32 -11 29 -23 39 -49 47 -19 5 -35 17 -37 27 -3 15 11 17 162 17 l166 0 0 30 0 30 -165 0 -166 0 3 65 c3 59 5 64 23 58 10 -3 31 -7 45 -8 15 -1 33 -5 40 -10 8 -5 16 -1 22 10 9 15 13 14 44 -16 19 -18 34 -30 34 -26 0 3 -19 24 -42 46 -29 27 -59 44 -91 52 -40 9 -48 15 -46 33 2 11 -3 32 -10 46 -11 21 -11 23 0 13 22 -21 32 -15 27 16 -2 17 -1 28 4 25 4 -3 8 0 8 6 0 22 29 20 65 -5 l38 -25 24 22 24 23 79 -41 c44 -22 81 -36 83 -31 2 6 13 5 27 -3 l25 -13 -24 26 c-13 15 -28 24 -33 21 -5 -3 -7 -2 -6 3 4 12 -34 53 -44 47 -5 -3 -7 0 -6 6 2 6 -13 23 -32 38 l-35 26 23 -25 c12 -14 22 -28 22 -32 0 -13 -47 -2 -70 17 l-25 21 18 -21 c27 -32 1 -37 -55 -10 -44 21 -88 56 -71 56 4 0 1 5 -7 11 -12 8 -11 9 6 4 23 -6 42 19 24 30 -6 4 -10 11 -10 17 0 7 5 6 14 -1 20 -17 41 19 23 39 -16 19 43 -18 71 -43 l22 -20 0 20 c0 11 -7 26 -15 33 -9 7 -13 15 -10 18 3 3 0 11 -6 18 -8 10 -6 20 9 38 34 44 78 92 90 100 7 4 42 -41 97 -124 47 -72 85 -134 85 -138 0 -4 -4 -2 -8 3 -4 6 -32 33 -63 60 -30 28 -15 11 33 -38 88 -87 88 -87 113 -71 14 9 22 21 18 28 -4 6 -29 41 -55 79 -26 37 -48 70 -48 74 0 4 18 -11 40 -32 22 -21 40 -36 40 -32 0 11 -82 82 -91 80 -4 -2 -33 33 -63 77 -35 51 -50 80 -40 80 7 0 14 3 14 8 0 4 21 19 47 32 26 14 54 31 61 38 7 6 21 12 30 12 9 0 30 7 46 15 15 8 37 15 47 15 13 0 17 5 12 18 -6 15 -5 15 10 4 18 -15 61 -7 51 10 -4 6 -1 9 7 6 7 -2 16 -20 20 -39z m563 -178 c-8 -36 13 -52 33 -25 13 18 16 17 48 -21 19 -22 45 -50 57 -63 l23 -23 -40 -36 c-22 -19 -79 -68 -126 -108 l-87 -73 24 -28 c13 -16 23 -25 24 -20 0 5 7 3 15 -4 9 -7 13 -21 10 -30 -3 -10 2 -25 10 -34 20 -19 15 -19 55 0 31 16 35 16 64 -1 l31 -18 -23 26 c-23 25 -23 26 -4 36 11 6 22 7 26 4 3 -4 1 8 -5 25 -13 38 -43 50 -69 27 -15 -14 -21 -14 -39 -3 -22 14 -27 24 -12 30 7 2 137 117 176 155 10 10 16 9 26 -3 9 -11 23 -14 47 -10 71 11 118 -28 124 -104 3 -34 -20 -80 -39 -80 -7 0 -13 -5 -13 -11 0 -5 -4 -8 -9 -4 -24 14 -20 -20 5 -46 31 -33 22 -40 -11 -9 l-22 20 4 -27 c4 -28 3 -28 -93 -51 l-98 -22 -35 32 c-35 32 -35 32 -8 2 15 -16 27 -33 27 -37 0 -14 -44 -7 -64 11 -13 11 -17 11 -9 2 6 -8 14 -30 18 -47 3 -18 10 -35 14 -37 4 -3 66 10 138 28 l131 32 6 -35 c11 -70 11 -71 -44 -71 -49 0 -50 -1 -50 -30 0 -29 1 -30 50 -30 48 0 50 -1 50 -27 0 -29 -15 -102 -22 -109 -2 -2 -57 10 -122 26 -65 17 -122 30 -126 30 -13 0 -22 -52 -10 -60 6 -3 61 -19 123 -35 61 -15 114 -29 116 -31 4 -3 -30 -94 -36 -94 -2 0 -27 12 -55 26 -34 17 -54 22 -61 15 -14 -14 16 -58 54 -79 31 -18 38 -49 13 -59 -8 -3 -13 -12 -10 -19 6 -16 -10 -19 -19 -4 -3 6 -15 10 -27 10 -15 0 -18 -4 -14 -16 5 -13 4 -14 -7 -6 -8 7 -16 10 -18 8 -2 -3 -38 24 -78 60 -51 44 -78 61 -86 54 -8 -6 -43 23 -115 95 l-103 103 16 35 c39 82 10 202 -62 254 -20 15 -37 28 -38 28 -2 1 13 59 32 129 18 70 31 134 28 142 -3 8 0 14 6 14 6 0 10 -6 8 -12 -1 -7 10 -14 24 -16 21 -2 28 2 33 22 3 13 9 31 12 40 5 14 2 15 -21 6 -35 -13 -35 -13 -35 10 0 11 6 21 13 21 20 2 42 -3 47 -10 3 -4 28 -27 55 -51 l50 -44 -44 46 c-40 42 -47 68 -18 68 6 0 27 -15 46 -32 24 -24 30 -26 18 -10 -8 13 -25 31 -37 39 -21 14 -21 16 -3 35 13 15 18 37 18 96 0 44 6 87 13 100 l13 23 49 -41 c43 -36 49 -45 44 -69z m-218 28 c21 -20 24 -20 30 -5 7 20 28 21 43 2 8 -10 7 -22 -4 -50 -8 -20 -19 -36 -24 -36 -12 0 -22 27 -15 44 3 8 -3 16 -16 19 -16 4 -19 3 -10 -8 10 -12 4 -45 -8 -45 -4 0 -27 19 -52 43 l-45 42 43 -45 c37 -40 56 -90 35 -90 -5 0 -32 22 -61 49 -62 57 -65 80 -12 97 44 15 67 10 96 -17z m-86 -94 c47 -47 50 -54 29 -52 -37 4 -67 24 -84 58 -13 24 -13 49 -2 49 2 0 27 -25 57 -55z m319 -309 c9 -10 8 -16 -4 -26 -21 -17 -51 6 -34 26 6 8 15 14 19 14 4 0 13 -6 19 -14z m-413 -216 c69 -34 92 -105 54 -167 -24 -40 -67 -63 -120 -63 -32 0 -48 7 -75 33 -68 62 -53 161 29 198 52 24 61 23 112 -1z m424 -525 c72 -73 76 -75 115 -71 62 8 114 -9 153 -48 31 -30 36 -42 39 -93 7 -100 -40 -150 -148 -159 -74 -6 -115 13 -149 68 -21 35 -27 112 -11 137 7 10 3 23 -10 39 -24 31 -24 37 1 60 21 19 21 19 -35 70 -49 45 -63 72 -37 72 4 0 41 -34 82 -75z m-740 -22 c0 -14 -64 -105 -68 -95 -3 11 21 66 40 90 11 13 28 16 28 5z m-54 -161 c84 -68 39 -182 -71 -182 -27 0 -44 8 -66 29 -65 65 -20 171 73 171 26 0 52 -7 64 -18z"/>
 <path d="M1039 1857 c36 -37 67 -64 70 -62 6 7 -66 81 -104 107 -16 12 -1 -9 34 -45z"/>
 <path d="M950 1872 c0 -9 74 -80 105 -102 11 -8 -7 14 -40 48 -62 64 -65 67 -65 54z"/>
 <path d="M772 1675 c59 -60 110 -107 113 -103 3 3 -45 52 -107 108 l-113 104 107 -109z"/>
 <path d="M800 1714 c30 -30 64 -60 75 -66 11 -6 -9 19 -45 56 -35 36 -69 66 -74 66 -6 0 14 -25 44 -56z"/>
 <path d="M590 1534 c8 -33 5 -38 -15 -34 -5 1 -1 -8 9 -19 10 -11 21 -19 25 -18 3 1 6 -1 6 -5 0 -10 75 -86 110 -111 26 -19 28 -19 15 -2 -8 10 -31 34 -50 52 l-35 32 31 1 c24 0 40 -9 63 -35 17 -20 31 -30 31 -23 0 6 -12 24 -26 39 -26 27 -26 27 -4 34 12 4 28 1 38 -6 14 -11 15 -11 5 1 -17 19 -16 31 1 24 8 -3 21 5 30 18 20 28 20 34 1 42 -11 4 -19 -3 -25 -19 -5 -14 -15 -25 -21 -25 -7 0 -46 18 -87 41 -101 55 -112 57 -102 13z"/>
 <path d="M862 1468 c-27 -27 -13 -48 53 -80 60 -30 66 -31 81 -16 24 24 12 43 -48 77 -59 34 -69 36 -86 19z"/>
 <path d="M860 921 c0 -5 7 -15 17 -22 15 -13 15 -12 4 9 -12 23 -21 28 -21 13z"/>
 <path d="M840 871 c0 -5 5 -13 10 -16 6 -3 10 -2 10 4 0 5 -4 13 -10 16 -5 3 -10 2 -10 -4z"/>
 <path d="M1893 1748 c3 -9 0 -30 -8 -45 -8 -15 -15 -47 -16 -71 -2 -28 -6 -39 -13 -32 -19 19 -29 10 -11 -10 27 -30 48 -26 41 8 -4 16 1 51 12 85 17 51 18 58 4 69 -13 11 -15 10 -9 -4z"/>
 <path d="M1520 1447 c-57 -34 -70 -60 -38 -80 13 -9 29 -4 70 18 71 38 80 52 52 79 -21 21 -22 21 -84 -17z"/>
 <path d="M1770 1296 c0 -2 7 -9 15 -16 9 -7 15 -8 15 -2 0 5 -7 12 -15 16 -8 3 -15 4 -15 2z"/>
 <path d="M1823 681 c-56 -35 -53 -115 7 -146 86 -44 170 58 108 129 -31 35 -75 42 -115 17z"/>
 </g>
<g id="layer110" fill="#198cd7" stroke="none">
 <path d="M1189 2435 c-4 -3 -33 -7 -65 -9 -33 -3 -66 -7 -74 -9 -59 -18 -195 -45 -203 -40 -6 3 -7 1 -4 -4 4 -7 -11 -13 -38 -17 -24 -4 -47 -11 -50 -17 -4 -5 -11 -7 -16 -4 -5 4 -9 1 -9 -4 0 -6 -3 -10 -7 -9 -13 3 -65 -24 -149 -79 -301 -194 -491 -484 -543 -830 -26 -173 -8 -419 44 -576 102 -313 370 -603 683 -737 132 -57 253 -82 419 -88 246 -8 400 21 588 113 371 179 634 533 686 924 18 129 6 363 -25 481 -51 203 -171 409 -326 559 -165 160 -430 301 -615 326 -123 17 -288 28 -296 20z m172 -280 c21 -16 44 -25 61 -23 16 2 39 -7 57 -20 17 -12 35 -22 41 -22 5 0 10 -5 10 -11 0 -5 4 -7 10 -4 6 4 7 -2 1 -18 -5 -14 -6 -29 -3 -33 4 -5 -1 -1 -10 9 -9 10 -21 18 -25 18 -4 -1 -26 6 -49 15 -147 56 -267 -142 -154 -254 l29 -29 -41 -156 -40 -155 -40 -6 c-116 -19 -188 -102 -188 -216 0 -84 53 -161 132 -194 46 -20 128 -21 172 -2 34 14 34 14 82 -35 41 -41 54 -48 92 -51 l44 -3 -20 -25 c-19 -24 -21 -24 -39 -7 -17 15 -45 17 -256 17 -130 0 -237 -4 -237 -8 0 -14 43 -49 87 -71 24 -12 75 -26 115 -33 91 -14 209 7 271 48 l40 26 56 -57 c31 -31 52 -55 46 -54 -33 5 -57 -2 -51 -16 3 -8 9 -22 12 -30 10 -25 -70 -20 -87 5 -12 18 -18 20 -46 10 -19 -7 -30 -17 -27 -24 7 -17 -18 -27 -37 -15 -17 11 -79 12 -79 2 0 -5 -14 -9 -30 -10 -17 -1 -30 2 -30 8 0 6 -22 9 -50 8 -27 -2 -50 -6 -50 -11 0 -19 -29 -6 -32 14 -2 14 -12 24 -28 28 -20 5 -28 1 -43 -22 -22 -37 -41 -27 -20 11 18 31 12 59 -14 67 -10 3 -26 10 -37 16 -10 5 -22 6 -25 1 -4 -4 -22 -27 -40 -50 -35 -47 -70 -56 -107 -29 -18 14 -18 15 0 29 17 13 17 14 -8 30 -25 17 -27 17 -55 -4 -26 -19 -34 -21 -72 -11 -24 6 -47 8 -52 5 -8 -5 -36 24 -37 39 0 4 58 37 129 73 102 53 128 70 124 83 -16 45 -22 44 -158 -28 l-133 -69 -11 31 c-8 21 -8 35 -1 42 5 5 10 18 10 29 0 12 13 24 40 34 28 11 39 21 35 31 -3 7 -5 18 -5 24 0 6 -12 8 -29 5 -26 -5 -30 -2 -43 32 -11 29 -23 39 -49 47 -19 5 -35 17 -37 27 -3 15 11 17 157 17 89 0 161 3 161 8 0 4 3 17 6 30 l6 22 -166 0 -167 0 3 65 c3 59 5 64 23 58 10 -3 31 -7 45 -8 15 -1 32 -5 39 -10 19 -11 31 15 18 37 -7 10 -31 24 -55 30 -35 9 -43 15 -41 32 2 11 -3 32 -10 46 -11 21 -11 23 0 13 22 -21 32 -15 27 16 -2 17 -1 28 4 25 4 -3 8 0 8 6 0 22 30 21 66 -4 l38 -26 24 23 23 22 80 -41 c65 -34 79 -38 79 -24 0 50 -76 95 -133 79 -19 -5 -41 -2 -70 10 -42 19 -98 61 -81 61 5 0 2 5 -6 11 -12 8 -11 9 6 4 23 -6 42 19 24 30 -6 4 -10 11 -10 17 0 7 5 6 14 -1 20 -17 41 19 23 39 -16 19 43 -18 71 -43 l22 -20 0 20 c0 11 -7 26 -15 33 -9 7 -13 15 -10 18 3 3 0 11 -6 18 -8 10 -5 20 11 41 43 56 91 103 99 99 4 -3 55 -77 112 -166 57 -88 106 -160 109 -160 3 0 15 8 28 18 l22 17 -65 90 c-147 204 -174 245 -159 245 7 0 14 3 14 8 0 4 21 19 47 32 26 14 54 31 61 38 7 6 21 12 30 12 9 0 30 7 46 15 15 8 37 15 47 15 13 0 17 5 12 18 -6 15 -5 15 10 4 17 -15 61 -7 52 9 -4 5 -2 9 4 9 18 0 22 -20 36 -188 20 -236 23 -252 43 -252 46 1 47 7 18 212 -15 106 -28 200 -29 208 -1 9 4 13 13 11 45 -12 72 -13 66 -2 -9 13 6 15 20 2 5 -5 27 -12 49 -16 l40 -6 -25 20 c-36 29 -21 26 21 -4z m333 -204 c-8 -36 13 -52 33 -25 13 18 16 17 48 -21 19 -22 44 -49 55 -60 11 -12 20 -23 20 -27 0 -3 -54 -52 -120 -108 -66 -56 -120 -105 -120 -109 0 -4 7 -17 16 -29 l16 -23 76 68 c43 37 84 74 93 83 74 71 87 79 100 64 9 -11 23 -14 47 -10 71 11 118 -28 124 -104 3 -34 -20 -80 -39 -80 -7 0 -13 -5 -13 -11 0 -5 -4 -8 -9 -4 -24 14 -20 -20 5 -46 31 -33 22 -40 -11 -9 l-22 20 4 -27 4 -28 -133 -31 c-127 -30 -133 -32 -130 -55 1 -13 6 -27 10 -31 4 -4 66 7 139 25 l131 33 6 -35 c11 -70 11 -71 -44 -71 -49 0 -50 -1 -50 -30 0 -29 1 -30 50 -30 48 0 50 -1 50 -27 0 -29 -15 -102 -22 -109 -2 -2 -57 10 -122 26 -65 17 -122 30 -126 30 -13 0 -22 -52 -10 -60 6 -3 61 -19 123 -35 61 -15 114 -29 116 -31 4 -3 -30 -94 -36 -94 -2 0 -27 12 -55 26 -34 17 -54 22 -61 15 -14 -14 16 -58 54 -79 31 -18 38 -49 13 -59 -8 -3 -13 -12 -10 -19 6 -16 -10 -19 -19 -4 -3 6 -15 10 -26 10 -16 0 -19 -4 -14 -21 l7 -22 -28 21 c-16 11 -55 43 -87 71 -38 33 -65 50 -76 46 -11 -3 -48 27 -120 99 l-104 104 16 35 c39 82 10 202 -62 254 -20 15 -37 28 -38 28 -2 1 13 59 32 129 18 70 31 134 28 142 -3 8 0 14 7 14 6 0 9 -4 6 -9 -6 -9 16 -21 38 -21 7 0 18 17 24 38 7 21 26 51 43 66 44 39 62 88 54 146 -5 35 -2 56 10 79 l16 32 49 -41 c43 -36 49 -45 44 -69z m-241 47 c12 -6 27 -18 34 -27 10 -14 12 -14 18 2 8 20 28 22 44 3 8 -10 7 -22 -4 -50 -8 -20 -19 -36 -24 -36 -13 0 -21 27 -15 45 4 8 3 15 0 15 -4 0 -19 -26 -34 -57 -21 -46 -33 -59 -53 -61 -29 -3 -76 30 -89 64 -14 36 7 84 44 100 39 17 52 17 79 2z m37 -209 c0 -8 -41 -29 -56 -29 -10 0 -3 39 9 43 17 5 47 -3 47 -14z m-194 -429 c69 -34 92 -105 54 -167 -24 -40 -67 -63 -120 -63 -32 0 -48 7 -75 33 -68 62 -53 161 29 198 52 24 61 23 112 -1z m424 -525 c72 -73 76 -75 115 -71 62 8 114 -9 153 -48 31 -30 36 -42 39 -93 7 -100 -40 -150 -148 -159 -74 -6 -115 13 -149 68 -21 35 -27 112 -11 137 7 10 3 23 -10 39 -24 31 -24 37 1 60 21 19 21 19 -35 70 -49 45 -63 72 -37 72 4 0 41 -34 82 -75z m-740 -22 c0 -14 -64 -105 -68 -95 -3 11 21 66 40 90 11 13 28 16 28 5z m-54 -161 c84 -68 39 -182 -71 -182 -27 0 -44 8 -66 29 -65 65 -20 171 73 171 26 0 52 -7 64 -18z"/>
 <path d="M595 1560 c-14 -22 6 -79 36 -104 36 -30 76 -33 122 -9 18 9 37 16 44 15 7 -2 19 11 27 27 14 26 14 30 0 35 -9 4 -18 -3 -24 -19 -5 -14 -15 -25 -21 -25 -7 0 -49 20 -95 45 -53 29 -85 41 -89 35z"/>
 <path d="M862 1468 c-27 -27 -13 -48 53 -80 60 -30 66 -31 81 -16 24 24 12 43 -48 77 -59 34 -69 36 -86 19z"/>
 <path d="M1893 1747 c4 -10 0 -31 -8 -47 -15 -30 -21 -79 -7 -66 4 4 14 30 23 57 15 44 15 50 1 61 -13 11 -15 10 -9 -5z"/>
 <path d="M1867 1613 c-4 -6 0 -19 8 -29 11 -15 14 -16 15 -4 0 21 -16 44 -23 33z"/>
 <path d="M1728 1563 c-49 -27 -61 -43 -52 -68 9 -23 44 -18 102 15 53 31 57 36 46 64 -9 23 -42 19 -96 -11z"/>
 <path d="M1520 1447 c-57 -34 -70 -60 -38 -80 13 -9 29 -4 70 18 71 38 80 52 52 79 -21 21 -22 21 -84 -17z"/>
 <path d="M1823 681 c-56 -35 -53 -115 7 -146 86 -44 170 58 108 129 -31 35 -75 42 -115 17z"/>
 </g>
<g id="layer111" fill="#c88741" stroke="none">
 <path d="M1168 2323 c-10 -2 -18 -10 -18 -16 0 -8 30 -12 98 -12 115 0 180 -19 327 -91 17 -8 35 -18 41 -22 6 -4 33 -21 60 -39 60 -39 128 -103 111 -104 -7 0 0 -5 16 -11 15 -5 27 -13 27 -17 0 -5 10 -19 23 -32 12 -13 35 -41 51 -62 l28 -39 -32 -33 c-31 -32 -33 -55 -7 -55 7 0 21 9 30 21 23 26 37 21 56 -19 9 -17 28 -36 43 -43 46 -19 55 -35 61 -111 1 -20 10 -45 20 -56 27 -29 20 -38 -9 -11 l-26 24 7 -25 c4 -14 14 -35 21 -48 16 -25 11 -42 -12 -42 -8 0 -14 -5 -14 -11 0 -6 -8 -8 -17 -5 -10 3 -24 1 -32 -3 -27 -17 6 -41 52 -39 l41 3 8 -55 c6 -39 5 -62 -4 -78 -9 -17 -9 -28 -1 -41 8 -13 9 -39 3 -87 -5 -38 -9 -75 -10 -82 0 -17 -21 -13 -208 40 -79 22 -145 39 -147 37 -2 -2 -6 -16 -10 -31 -8 -31 -5 -32 169 -68 55 -11 117 -25 138 -32 41 -12 42 -14 13 -85 -7 -17 -12 -33 -10 -35 2 -2 -9 -12 -23 -22 -14 -11 -22 -14 -18 -8 3 6 1 14 -5 18 -8 4 -9 3 -5 -4 4 -7 2 -12 -5 -12 -8 0 -6 -7 5 -19 10 -11 15 -25 11 -30 -8 -14 -65 -44 -65 -34 0 4 -6 0 -12 -9 -7 -9 -20 -18 -28 -21 -8 -2 -4 -3 10 -2 19 3 34 -8 64 -42 35 -40 40 -54 44 -102 6 -98 -42 -148 -149 -157 -74 -6 -115 13 -149 68 -21 35 -27 112 -11 137 7 10 3 23 -10 39 -24 31 -24 37 1 60 21 19 21 19 -36 71 -43 40 -54 55 -45 64 8 8 30 -7 89 -66 74 -74 103 -90 118 -66 4 8 9 7 16 -2 8 -11 9 -11 5 1 -2 8 -10 14 -17 12 -7 -2 -48 31 -91 73 -57 56 -83 75 -96 71 -14 -4 -45 21 -122 98 l-104 104 16 35 c39 82 10 202 -62 254 -20 15 -37 28 -38 28 -2 1 13 59 32 129 18 70 31 134 28 142 -3 8 0 14 7 14 6 0 9 -4 6 -9 -6 -9 15 -21 35 -21 5 0 18 19 28 43 10 23 31 52 46 65 64 56 70 153 12 214 -18 18 -34 32 -37 31 -3 -2 -23 4 -46 13 -147 56 -267 -142 -154 -254 l29 -29 -41 -156 -40 -155 -40 -6 c-116 -19 -188 -102 -188 -216 0 -84 53 -161 132 -194 46 -20 128 -21 172 -2 34 14 34 14 82 -35 41 -41 54 -48 92 -51 l44 -3 -20 -25 c-19 -24 -21 -24 -39 -7 -17 15 -45 17 -256 17 -130 0 -237 -4 -237 -8 0 -14 43 -49 87 -71 24 -12 75 -26 115 -33 91 -14 209 7 271 48 l40 26 56 -57 c31 -31 52 -55 46 -54 -33 5 -57 -2 -51 -16 3 -8 9 -22 12 -30 10 -25 -70 -20 -87 5 -12 18 -18 20 -46 10 -19 -7 -30 -17 -27 -24 7 -17 -18 -27 -37 -15 -17 11 -79 12 -79 2 0 -5 -14 -9 -30 -10 -17 -1 -30 2 -30 8 0 6 -22 9 -50 8 -27 -2 -50 -6 -50 -11 0 -19 -29 -6 -32 14 -2 14 -12 24 -28 28 -20 5 -28 1 -43 -22 -22 -37 -41 -27 -20 11 18 31 12 59 -14 67 -10 3 -26 10 -35 15 -10 5 -19 9 -21 9 -2 0 -23 -27 -47 -60 -30 -41 -47 -57 -54 -50 -15 15 -30 12 -17 -4 10 -12 6 -14 -24 -12 -19 1 -36 -3 -38 -7 -1 -5 -16 -7 -32 -5 l-30 3 24 22 23 21 -43 -10 c-24 -5 -54 -14 -65 -20 -21 -10 -46 -1 -86 30 -9 8 -33 14 -52 15 -34 1 -53 18 -40 38 3 5 32 23 65 39 32 17 59 35 59 41 0 5 -5 7 -12 3 -7 -4 -8 -3 -4 4 13 21 -22 13 -83 -17 -84 -43 -95 -24 -27 43 56 55 84 122 72 172 -6 24 -10 26 -42 21 -26 -4 -48 1 -91 24 -63 33 -73 43 -73 77 0 20 4 22 60 22 53 0 60 2 60 20 0 18 -7 20 -61 20 l-62 0 6 82 c4 46 11 84 17 86 5 2 10 18 10 35 0 18 9 61 20 97 11 36 20 75 20 88 0 27 6 27 48 2 37 -23 47 -25 33 -7 -6 6 -21 25 -35 42 -20 25 -22 33 -13 60 29 85 186 289 280 362 71 56 163 113 180 113 13 0 133 38 158 51 9 4 25 6 35 3 20 -4 52 11 43 20 -3 3 -30 2 -60 -4 -30 -5 -63 -11 -74 -13 -11 -1 -25 -6 -31 -9 -6 -4 -30 -10 -52 -14 -23 -4 -42 -10 -42 -13 0 -4 -10 -8 -22 -8 -13 -1 -34 -7 -48 -14 -14 -6 -45 -20 -70 -32 -25 -11 -52 -24 -60 -28 -8 -4 -34 -18 -58 -30 -24 -12 -55 -31 -70 -43 -15 -12 -47 -35 -71 -51 -24 -16 -49 -38 -55 -47 -6 -10 -16 -18 -22 -18 -30 0 -211 -228 -259 -325 -33 -66 -73 -227 -87 -347 -25 -222 35 -488 160 -708 20 -36 37 -72 37 -80 0 -8 6 -15 12 -15 7 0 20 -10 28 -22 9 -13 13 -23 9 -23 -4 0 5 -9 20 -21 14 -11 25 -24 23 -27 -2 -4 20 -32 51 -62 30 -30 51 -48 47 -40 -4 8 6 0 22 -18 15 -18 33 -32 39 -32 7 0 19 -11 28 -25 9 -14 21 -23 27 -20 5 4 12 -1 15 -9 3 -9 9 -14 14 -11 4 2 17 -5 28 -16 12 -11 22 -17 22 -13 0 3 15 -5 34 -20 33 -25 80 -49 101 -51 6 -1 28 -10 50 -20 22 -11 42 -20 45 -21 3 0 23 -5 45 -12 41 -11 61 -16 150 -32 87 -16 378 -5 485 19 52 12 99 26 104 31 6 6 17 10 26 10 30 0 230 108 306 166 273 205 450 502 486 819 10 85 5 310 -8 384 -34 199 -156 447 -273 557 -28 26 -48 50 -46 54 3 4 -5 16 -18 26 l-22 19 19 -22 c28 -33 12 -28 -47 15 -163 116 -379 197 -587 221 -82 9 -275 12 -302 4z m285 -325 c12 -6 27 -18 34 -27 10 -14 12 -14 18 2 8 20 28 22 44 3 8 -10 7 -22 -4 -50 -17 -41 -22 -43 -42 -18 -8 9 -16 13 -19 7 -27 -62 -41 -80 -65 -83 -29 -3 -76 30 -89 64 -14 36 7 84 44 100 39 17 52 17 79 2z m637 -265 c0 -8 -9 0 -50 45 l-45 47 48 -45 c26 -24 47 -45 47 -47z m-600 56 c0 -8 -41 -29 -56 -29 -10 0 -3 39 9 43 17 5 47 -3 47 -14z m-194 -429 c69 -34 92 -105 54 -167 -24 -40 -67 -63 -120 -63 -32 0 -48 7 -75 33 -68 62 -53 161 29 198 52 24 61 23 112 -1z m-316 -547 c0 -14 -64 -105 -68 -95 -3 11 21 66 40 90 11 13 28 16 28 5z m-54 -161 c84 -68 39 -182 -71 -182 -27 0 -44 8 -66 29 -65 65 -20 171 73 171 26 0 52 -7 64 -18z"/>
 <path d="M1140 2057 c0 -2 14 -16 31 -33 18 -17 28 -22 24 -12 -6 14 -55 55 -55 45z"/>
 <path d="M1154 1902 c7 -127 16 -172 35 -172 40 1 44 12 31 111 -12 96 -19 112 -52 130 -17 9 -18 5 -14 -69z"/>
 <path d="M830 1835 c19 -33 116 -181 126 -193 1 -2 14 4 28 13 l26 17 -32 47 c-75 112 -101 141 -115 129 -10 -8 -19 -6 -35 8 -21 18 -21 18 2 -21z"/>
 <path d="M1696 1679 c-42 -33 -78 -65 -82 -70 -3 -5 2 -21 11 -35 l16 -25 72 64 c40 36 71 72 71 80 -1 9 4 13 12 10 8 -3 14 -1 14 4 0 11 -21 33 -31 33 -4 0 -42 -27 -83 -61z"/>
 <path d="M1890 1708 c-19 -31 -29 -90 -12 -74 8 9 41 106 35 106 -2 0 -12 -15 -23 -32z"/>
 <path d="M500 1641 c0 -5 12 -17 28 -26 l27 -18 -24 27 c-26 28 -31 31 -31 17z"/>
 <path d="M583 1633 c10 -11 15 -27 11 -37 -8 -21 4 -21 29 1 18 17 22 16 98 -23 65 -34 79 -38 79 -24 0 28 -39 69 -73 78 -18 5 -47 5 -66 -1 -28 -7 -41 -5 -65 9 -31 17 -31 17 -13 -3z"/>
 <path d="M1728 1563 c-49 -27 -61 -43 -52 -68 9 -23 44 -18 102 15 53 31 57 36 46 64 -9 23 -42 19 -96 -11z"/>
 <path d="M595 1560 c-14 -22 6 -79 36 -104 36 -30 76 -33 122 -9 18 9 37 16 44 15 7 -2 19 11 27 27 14 26 14 30 0 35 -9 4 -18 -3 -24 -19 -5 -14 -15 -25 -21 -25 -7 0 -49 20 -95 45 -53 29 -85 41 -89 35z"/>
 <path d="M862 1468 c-27 -27 -13 -48 53 -80 60 -30 66 -31 81 -16 24 24 12 43 -48 77 -59 34 -69 36 -86 19z"/>
 <path d="M1520 1447 c-57 -34 -70 -60 -38 -80 13 -9 29 -4 70 18 71 38 80 52 52 79 -21 21 -22 21 -84 -17z"/>
 <path d="M1835 1426 c-95 -21 -100 -24 -97 -46 1 -14 6 -28 10 -32 6 -6 77 9 173 38 11 3 15 12 12 24 -4 17 -2 19 13 13 17 -6 17 -5 5 10 -7 9 -14 17 -15 16 0 0 -46 -11 -101 -23z"/>
 <path d="M1970 1429 c11 -19 50 -27 50 -10 0 12 -14 21 -40 26 -17 3 -19 1 -10 -16z"/>
 <path d="M523 1283 c-14 -3 -23 -12 -23 -23 0 -24 27 -30 146 -30 97 0 102 1 108 23 3 12 6 25 6 30 0 7 -198 8 -237 0z"/>
 <path d="M712 1010 c-40 -22 -88 -50 -108 -64 -32 -21 -34 -25 -19 -39 18 -19 28 -16 151 44 67 33 81 43 77 59 -11 40 -27 40 -101 0z"/>
 <path d="M1823 681 c-56 -35 -53 -115 7 -146 86 -44 170 58 108 129 -31 35 -75 42 -115 17z"/>
 </g>
<g id="layer112" fill="#5587b6" stroke="none">
 <path d="M1168 2323 c-10 -2 -18 -10 -18 -16 0 -8 30 -12 98 -12 115 0 180 -19 327 -91 17 -8 35 -18 41 -22 6 -4 33 -21 60 -39 60 -39 128 -103 111 -104 -7 0 0 -5 16 -11 15 -5 27 -13 27 -17 0 -5 10 -19 23 -32 12 -13 35 -41 51 -62 l28 -39 -32 -33 c-31 -32 -33 -55 -7 -55 7 0 21 9 30 21 23 26 37 21 56 -19 9 -17 24 -34 33 -37 30 -10 68 -46 68 -65 0 -9 7 -23 15 -30 13 -11 13 -14 0 -27 -20 -19 -19 -26 5 -48 11 -10 20 -23 20 -28 0 -6 -12 0 -26 14 l-26 24 7 -25 c4 -14 14 -35 21 -48 16 -25 11 -42 -12 -42 -8 0 -14 -5 -14 -11 0 -6 -8 -8 -17 -5 -10 3 -24 1 -32 -3 -27 -17 6 -41 52 -39 l41 3 8 -55 c6 -39 5 -62 -4 -78 -9 -17 -9 -28 -1 -41 8 -13 9 -39 3 -87 -5 -38 -9 -75 -10 -82 0 -17 -21 -13 -208 40 -79 22 -145 39 -147 37 -2 -2 -6 -16 -10 -31 -8 -31 -5 -32 169 -68 55 -11 117 -25 138 -32 41 -12 42 -14 13 -85 -7 -17 -12 -33 -10 -35 2 -2 -9 -12 -23 -22 -14 -11 -22 -14 -18 -8 3 6 1 14 -5 18 -8 4 -9 3 -5 -4 4 -7 2 -12 -5 -12 -8 0 -6 -7 5 -19 10 -11 15 -25 11 -30 -7 -12 -60 -42 -66 -37 -2 1 -12 -6 -22 -17 -18 -18 -18 -19 0 -13 13 4 29 -8 57 -41 34 -40 40 -54 44 -102 6 -98 -42 -148 -149 -157 -74 -6 -115 13 -149 68 -21 35 -27 107 -10 137 8 15 -2 29 -53 79 -53 51 -67 59 -91 55 -18 -4 -25 -10 -22 -19 3 -8 9 -21 12 -29 10 -25 -70 -20 -87 5 -12 18 -18 20 -46 10 -19 -7 -30 -17 -27 -24 7 -17 -18 -27 -37 -15 -17 11 -79 12 -79 2 0 -5 -14 -9 -30 -10 -17 -1 -30 2 -30 8 0 6 -22 9 -50 8 -27 -2 -50 -6 -50 -11 0 -19 -29 -6 -32 14 -2 14 -12 24 -28 28 -20 5 -28 1 -43 -22 -9 -16 -22 -26 -27 -23 -5 3 -14 -4 -20 -15 -13 -24 -42 -26 -60 -4 -11 13 -10 23 8 60 24 48 46 64 65 45 17 -17 31 -13 17 4 -7 8 -21 15 -31 15 -10 0 -21 5 -24 10 -11 18 -21 11 -65 -50 -30 -41 -47 -57 -54 -50 -15 15 -30 12 -17 -4 10 -12 6 -14 -24 -12 -19 1 -36 -3 -38 -7 -1 -5 -16 -7 -32 -5 l-30 3 24 22 23 21 -43 -10 c-24 -5 -54 -14 -65 -20 -21 -10 -46 -1 -86 30 -9 8 -33 14 -52 15 -34 1 -53 18 -40 38 3 5 32 23 65 39 32 17 59 35 59 41 0 5 -5 7 -12 3 -7 -4 -8 -3 -4 4 13 21 -22 13 -83 -17 -84 -43 -95 -24 -27 43 56 55 84 122 72 172 -6 24 -10 26 -42 21 -26 -4 -48 1 -91 24 -63 33 -73 43 -73 77 0 20 4 22 60 22 53 0 60 2 60 20 0 18 -7 20 -61 20 l-62 0 6 82 c4 46 11 84 17 86 5 2 10 18 10 35 0 18 9 61 20 97 11 36 20 75 20 88 0 27 6 27 48 2 37 -23 47 -25 33 -7 -6 6 -21 25 -35 42 -20 25 -22 33 -13 60 29 85 186 289 280 362 71 56 163 113 180 113 13 0 133 38 158 51 9 4 25 6 35 3 20 -4 52 11 43 20 -3 3 -30 2 -60 -4 -30 -5 -63 -11 -74 -13 -11 -1 -25 -6 -31 -9 -6 -4 -30 -10 -52 -14 -23 -4 -42 -10 -42 -13 0 -4 -10 -8 -22 -8 -13 -1 -34 -7 -48 -14 -14 -6 -45 -20 -70 -32 -25 -11 -52 -24 -60 -28 -8 -4 -34 -18 -58 -30 -24 -12 -55 -31 -70 -43 -15 -12 -47 -35 -71 -51 -24 -16 -49 -38 -55 -47 -6 -10 -16 -18 -22 -18 -30 0 -211 -228 -259 -325 -33 -66 -73 -227 -87 -347 -25 -222 35 -488 160 -708 20 -36 37 -72 37 -80 0 -8 6 -15 12 -15 7 0 20 -10 28 -22 9 -13 13 -23 9 -23 -4 0 5 -9 20 -21 14 -11 25 -24 23 -27 -2 -4 20 -32 51 -62 30 -30 51 -48 47 -40 -4 8 6 0 22 -18 15 -18 33 -32 39 -32 7 0 19 -11 28 -25 9 -14 21 -23 27 -20 5 4 12 -1 15 -9 3 -9 9 -14 14 -11 4 2 17 -5 28 -16 12 -11 22 -17 22 -13 0 3 15 -5 34 -20 33 -25 80 -49 101 -51 6 -1 28 -10 50 -20 22 -11 42 -20 45 -21 3 0 23 -5 45 -12 41 -11 61 -16 150 -32 87 -16 378 -5 485 19 52 12 99 26 104 31 6 6 17 10 26 10 30 0 230 108 306 166 273 205 450 502 486 819 10 85 5 310 -8 384 -34 199 -156 447 -273 557 -28 26 -48 50 -46 54 3 4 -5 16 -18 26 l-22 19 19 -22 c28 -33 12 -28 -47 15 -163 116 -379 197 -587 221 -82 9 -275 12 -302 4z m922 -590 c0 -8 -9 0 -50 45 l-45 47 48 -45 c26 -24 47 -45 47 -47z m-1164 -1081 c84 -68 39 -182 -71 -182 -27 0 -44 8 -66 29 -65 65 -20 171 73 171 26 0 52 -7 64 -18z"/>
 <path d="M1140 2057 c0 -2 14 -16 31 -33 18 -17 28 -22 24 -12 -6 14 -55 55 -55 45z"/>
 <path d="M1270 1986 c-14 -27 -17 -89 -6 -124 6 -19 14 -22 39 -20 32 3 32 3 35 -47 2 -27 9 -53 15 -57 7 -5 2 -8 -13 -8 -24 0 -27 -7 -59 -129 l-33 -129 -40 -6 c-116 -19 -188 -102 -188 -216 0 -84 53 -161 132 -194 46 -20 128 -21 172 -2 34 14 34 14 82 -35 41 -41 54 -48 92 -51 l44 -3 -20 -25 c-19 -24 -21 -24 -39 -7 -17 15 -45 17 -256 17 -130 0 -237 -4 -237 -8 0 -14 43 -49 87 -71 24 -12 75 -26 115 -33 91 -14 209 7 271 48 l39 26 32 -31 c18 -17 37 -31 43 -31 6 0 16 -6 22 -13 6 -8 23 -12 41 -9 l31 4 -27 29 c-22 23 -25 32 -16 41 10 10 29 -5 90 -65 73 -73 103 -90 117 -67 4 6 11 7 17 4 7 -4 8 -2 4 5 -4 6 -12 9 -17 5 -6 -3 -46 28 -89 71 -58 55 -84 75 -97 71 -14 -4 -45 21 -122 98 l-104 104 16 35 c39 82 10 202 -62 254 -20 15 -37 28 -38 28 -2 1 13 59 32 130 19 71 32 132 29 137 -3 4 -12 8 -20 8 -8 0 -14 5 -14 11 0 6 7 9 15 5 10 -3 21 9 35 41 24 56 24 53 0 53 -11 0 -37 9 -57 20 -21 11 -46 20 -57 20 -17 0 -18 6 -12 70 7 73 -1 88 -24 46z m26 -626 c69 -34 92 -105 54 -167 -24 -40 -67 -63 -120 -63 -32 0 -48 7 -75 33 -68 62 -53 161 29 198 52 24 61 23 112 -1z"/>
 <path d="M1154 1902 c7 -127 16 -172 35 -172 40 1 44 12 31 111 -12 96 -19 112 -52 130 -17 9 -18 5 -14 -69z"/>
 <path d="M1467 1878 l-17 -41 25 23 c14 13 25 32 25 42 0 31 -16 20 -33 -24z"/>
 <path d="M1547 1908 c-49 -123 -48 -119 -28 -106 26 16 51 61 51 92 0 27 -14 35 -23 14z"/>
 <path d="M830 1835 c19 -33 116 -181 126 -193 1 -2 14 4 28 13 l26 17 -32 47 c-75 112 -101 141 -115 129 -10 -8 -19 -6 -35 8 -21 18 -21 18 2 -21z"/>
 <path d="M1453 1767 c-49 -15 -50 -67 -2 -67 9 0 44 70 37 74 -2 2 -17 -2 -35 -7z"/>
 <path d="M1696 1679 c-42 -33 -78 -65 -82 -70 -3 -5 2 -21 11 -35 l16 -25 72 64 c40 36 71 72 71 80 -1 9 4 13 12 10 8 -3 14 -1 14 4 0 11 -21 33 -31 33 -4 0 -42 -27 -83 -61z"/>
 <path d="M500 1641 c0 -5 12 -17 28 -26 l27 -18 -24 27 c-26 28 -31 31 -31 17z"/>
 <path d="M583 1633 c10 -11 15 -27 11 -37 -8 -22 8 -20 23 2 9 16 7 21 -20 37 -32 18 -32 18 -14 -2z"/>
 <path d="M689 1637 c-10 -24 0 -37 52 -66 64 -35 79 -26 37 24 -18 20 -85 51 -89 42z"/>
 <path d="M665 1521 c3 -6 1 -11 -5 -11 -7 0 -10 -7 -7 -15 4 -8 2 -17 -3 -20 -20 -12 10 -45 41 -45 27 0 89 24 89 35 0 3 -27 19 -61 35 -34 17 -58 26 -54 21z"/>
 <path d="M800 1504 c-20 -51 0 -63 24 -15 14 26 14 30 0 35 -10 4 -18 -3 -24 -20z"/>
 <path d="M862 1468 c-27 -27 -13 -48 53 -80 60 -30 66 -31 81 -16 24 24 12 43 -48 77 -59 34 -69 36 -86 19z"/>
 <path d="M1520 1447 c-57 -34 -70 -60 -38 -80 13 -9 29 -4 70 18 71 38 80 52 52 79 -21 21 -22 21 -84 -17z"/>
 <path d="M1835 1426 c-95 -21 -100 -24 -97 -46 1 -14 6 -28 10 -32 6 -6 77 9 173 38 11 3 15 12 12 24 -4 17 -2 19 13 13 17 -6 17 -5 5 10 -7 9 -14 17 -15 16 0 0 -46 -11 -101 -23z"/>
 <path d="M1970 1429 c11 -19 50 -27 50 -10 0 12 -14 21 -40 26 -17 3 -19 1 -10 -16z"/>
 <path d="M523 1283 c-14 -3 -23 -12 -23 -23 0 -24 27 -30 146 -30 97 0 102 1 108 23 3 12 6 25 6 30 0 7 -198 8 -237 0z"/>
 <path d="M712 1010 c-40 -22 -88 -50 -108 -64 -32 -21 -34 -25 -19 -39 18 -19 28 -16 151 44 67 33 81 43 77 59 -11 40 -27 40 -101 0z"/>
 <path d="M1823 681 c-56 -35 -53 -115 7 -146 86 -44 170 58 108 129 -31 35 -75 42 -115 17z"/>
 </g>
<g id="layer113" fill="#139ae8" stroke="none">
 <path d="M1168 2323 c-10 -2 -18 -10 -18 -16 0 -8 30 -12 98 -12 115 0 180 -19 327 -91 17 -8 35 -18 41 -22 6 -4 33 -21 60 -39 60 -39 128 -103 111 -104 -7 0 0 -5 16 -11 15 -5 27 -13 27 -17 0 -5 10 -19 23 -32 12 -13 35 -41 51 -62 l28 -39 -32 -33 c-31 -32 -33 -55 -7 -55 7 0 21 9 30 21 22 26 37 21 56 -18 9 -17 31 -39 50 -49 32 -17 91 -104 71 -104 -19 0 -19 -34 0 -55 29 -31 25 -43 -6 -14 l-26 24 7 -25 c4 -14 14 -35 21 -48 16 -25 11 -42 -12 -42 -8 0 -14 -5 -14 -11 0 -6 -8 -8 -17 -5 -10 3 -24 1 -32 -3 -27 -17 6 -41 52 -39 l41 3 8 -55 c6 -39 5 -62 -4 -78 -9 -17 -9 -28 -1 -41 8 -13 9 -39 3 -87 -5 -38 -9 -75 -10 -82 0 -17 -21 -13 -208 40 -79 22 -145 39 -147 37 -2 -2 -6 -16 -10 -31 -8 -31 -5 -32 169 -68 55 -11 117 -25 138 -32 41 -12 42 -14 13 -85 -7 -17 -12 -33 -10 -35 2 -2 -9 -12 -23 -22 -14 -11 -22 -14 -18 -8 3 6 1 14 -5 18 -8 4 -9 3 -5 -4 4 -7 2 -12 -5 -12 -8 0 -6 -7 5 -19 10 -11 15 -25 11 -30 -7 -12 -60 -42 -66 -37 -2 1 -13 -6 -23 -17 -17 -18 -17 -20 -2 -14 19 7 57 -25 90 -74 19 -30 23 -101 8 -140 -25 -62 -125 -103 -209 -85 -67 15 -125 122 -101 186 8 21 1 32 -54 87 -40 41 -71 63 -85 63 -26 0 -30 -12 -8 -30 22 -18 18 -30 -10 -30 -18 0 -23 -4 -18 -15 5 -13 2 -14 -21 -4 -14 7 -26 15 -26 19 0 3 -6 14 -13 24 -10 14 -17 15 -40 7 -23 -9 -27 -16 -25 -38 2 -16 10 -39 17 -52 13 -23 12 -22 -25 5 -22 16 -43 35 -47 41 -4 7 -22 13 -40 13 -31 -1 -31 -1 -12 -17 16 -13 17 -15 3 -10 -10 4 -18 2 -18 -3 0 -6 -7 -10 -16 -10 -8 0 -12 -4 -9 -10 9 -14 -7 -12 -27 4 -10 7 -18 21 -18 30 0 12 -9 16 -35 16 -29 0 -35 -4 -33 -17 2 -15 -3 -17 -27 -14 -30 3 -30 3 -11 -18 35 -38 1 -22 -39 19 -29 30 -42 37 -52 29 -9 -8 -10 -16 -2 -31 10 -18 9 -19 -11 -8 -27 15 -52 -2 -32 -22 22 -22 12 -32 -10 -11 -13 11 -31 23 -40 26 -24 8 -23 37 4 86 21 39 49 53 63 31 3 -5 11 -10 17 -10 7 0 6 6 -2 15 -7 8 -22 15 -34 15 -12 0 -27 5 -33 11 -8 8 -14 5 -23 -12 -7 -12 -17 -28 -22 -33 -40 -49 -48 -60 -48 -67 0 -5 -20 -7 -45 -6 -25 1 -46 -1 -48 -6 -1 -5 -16 -7 -32 -5 l-30 3 24 22 23 21 -43 -10 c-24 -5 -54 -14 -65 -20 -21 -10 -46 -1 -86 30 -9 8 -33 14 -52 15 -34 1 -53 18 -40 38 3 5 32 23 65 39 32 17 59 35 59 41 0 5 -5 7 -12 3 -7 -4 -8 -3 -4 4 13 21 -22 13 -83 -17 -84 -43 -95 -24 -27 43 56 55 84 122 72 172 -6 24 -10 26 -42 21 -26 -4 -48 1 -91 24 -63 33 -73 43 -73 77 0 20 4 22 60 22 53 0 60 2 60 20 0 18 -7 20 -61 20 l-62 0 6 82 c4 46 11 84 17 86 5 2 10 18 10 35 0 18 9 61 20 97 11 36 20 75 20 88 0 27 6 27 48 2 37 -23 47 -25 33 -7 -6 6 -21 25 -35 42 -20 25 -22 33 -13 60 29 85 186 289 280 362 71 56 163 113 180 113 13 0 133 38 158 51 9 4 25 6 35 3 20 -4 52 11 43 20 -3 3 -30 2 -60 -4 -30 -5 -63 -11 -74 -13 -11 -1 -25 -6 -31 -9 -6 -4 -30 -10 -52 -14 -23 -4 -42 -10 -42 -13 0 -4 -10 -8 -22 -8 -13 -1 -34 -7 -48 -14 -14 -6 -45 -20 -70 -32 -25 -11 -52 -24 -60 -28 -8 -4 -34 -18 -58 -30 -24 -12 -55 -31 -70 -43 -15 -12 -47 -35 -71 -51 -24 -16 -49 -38 -55 -47 -6 -10 -16 -18 -22 -18 -30 0 -211 -228 -259 -325 -33 -66 -73 -227 -87 -347 -25 -222 35 -488 160 -708 20 -36 37 -72 37 -80 0 -8 6 -15 12 -15 7 0 20 -10 28 -22 9 -13 13 -23 9 -23 -4 0 5 -9 20 -21 14 -11 25 -24 23 -27 -2 -4 20 -32 51 -62 30 -30 51 -48 47 -40 -4 8 6 0 22 -18 15 -18 33 -32 39 -32 7 0 19 -11 28 -25 9 -14 21 -23 27 -20 5 4 12 -1 15 -9 3 -9 9 -14 14 -11 4 2 17 -5 28 -16 12 -11 22 -17 22 -13 0 3 15 -5 34 -20 33 -25 80 -49 101 -51 6 -1 28 -10 50 -20 22 -11 42 -20 45 -21 3 0 23 -5 45 -12 41 -11 61 -16 150 -32 87 -16 378 -5 485 19 52 12 99 26 104 31 6 6 17 10 26 10 30 0 230 108 306 166 273 205 450 502 486 819 10 85 5 310 -8 384 -34 199 -156 447 -273 557 -28 26 -48 50 -46 54 3 4 -5 16 -18 26 l-22 19 19 -22 c28 -33 12 -28 -47 15 -163 116 -379 197 -587 221 -82 9 -275 12 -302 4z m922 -590 c0 -8 -9 0 -50 45 l-45 47 48 -45 c26 -24 47 -45 47 -47z m-1226 -1059 c32 5 40 2 74 -32 33 -33 38 -43 34 -74 -6 -56 -39 -89 -95 -95 -55 -6 -88 11 -112 58 -21 39 -12 84 23 116 25 23 25 23 6 46 -18 21 -18 21 8 -1 21 -19 33 -22 62 -18z"/>
 <path d="M1270 1986 c-14 -27 -17 -89 -6 -124 6 -19 14 -22 39 -20 32 3 32 3 35 -47 2 -27 9 -53 15 -57 7 -5 2 -8 -13 -8 -24 0 -27 -7 -59 -129 l-33 -129 -40 -6 c-116 -19 -188 -102 -188 -216 0 -84 53 -161 132 -194 46 -20 128 -21 172 -2 34 14 34 14 82 -35 41 -41 54 -48 92 -51 l44 -3 -20 -25 c-19 -24 -21 -24 -39 -7 -17 15 -45 17 -256 17 -130 0 -237 -4 -237 -8 0 -14 43 -49 87 -71 24 -12 75 -26 115 -33 91 -14 209 7 271 48 l39 26 32 -31 c18 -17 37 -31 43 -31 6 0 16 -6 22 -13 6 -8 23 -12 41 -9 l31 4 -27 29 c-22 23 -25 32 -16 41 10 10 29 -5 90 -65 70 -70 98 -87 114 -72 3 3 -32 42 -78 86 -60 57 -89 79 -102 75 -13 -4 -45 22 -121 98 l-104 104 16 35 c39 82 10 202 -62 254 -20 15 -37 28 -38 28 -2 1 13 59 32 130 19 71 32 132 29 137 -3 4 -12 8 -20 8 -8 0 -14 5 -14 11 0 6 7 9 15 5 10 -3 21 9 35 41 24 56 24 53 0 53 -11 0 -37 9 -57 20 -21 11 -46 20 -57 20 -17 0 -18 6 -12 70 7 73 -1 88 -24 46z m26 -626 c69 -34 92 -105 54 -167 -24 -40 -67 -63 -120 -63 -32 0 -48 7 -75 33 -68 62 -53 161 29 198 52 24 61 23 112 -1z"/>
 <path d="M1185 1950 c10 -11 20 -20 23 -20 3 0 -3 9 -13 20 -10 11 -20 20 -23 20 -3 0 3 -9 13 -20z"/>
 <path d="M1150 1932 c0 -10 16 -34 36 -53 l36 -34 -7 34 c-10 49 -65 93 -65 53z"/>
 <path d="M1479 1910 c-1 -5 -2 -14 -3 -19 0 -5 -4 -13 -8 -17 -5 -4 -8 -12 -8 -18 1 -15 39 36 40 52 0 14 -19 17 -21 2z"/>
 <path d="M1547 1908 c-49 -123 -48 -119 -28 -106 26 16 51 61 51 92 0 27 -14 35 -23 14z"/>
 <path d="M1156 1860 c4 -19 14 -44 23 -55 15 -19 15 -19 -2 -5 -18 13 -18 12 -11 -26 8 -49 8 -48 40 -40 25 7 26 10 21 48 -4 30 -16 51 -41 77 l-36 36 6 -35z"/>
 <path d="M862 1848 c-10 -10 -2 -22 35 -60 58 -59 45 -64 -16 -5 -24 23 -40 35 -36 27 7 -13 103 -159 111 -168 1 -2 14 4 28 13 l25 17 -49 71 c-77 112 -84 119 -98 105z"/>
 <path d="M1465 1753 c5 -15 4 -16 -6 -5 -20 19 -36 14 -41 -13 -4 -18 0 -26 14 -31 22 -7 29 -1 46 39 10 23 9 27 -4 27 -11 0 -14 -5 -9 -17z"/>
 <path d="M1696 1679 c-42 -33 -78 -65 -82 -70 -3 -5 2 -21 11 -35 l16 -25 72 64 c40 36 71 72 71 80 -1 9 4 13 12 10 8 -3 14 -1 14 4 0 11 -21 33 -31 33 -4 0 -42 -27 -83 -61z"/>
 <path d="M500 1640 c0 -5 10 -15 23 -21 22 -12 22 -12 3 10 -21 23 -26 26 -26 11z"/>
 <path d="M590 1630 c0 -5 5 -10 11 -10 8 0 7 -5 -1 -15 -7 -9 -11 -17 -8 -20 2 -2 11 4 20 14 14 16 14 19 -3 30 -12 7 -19 7 -19 1z"/>
 <path d="M689 1637 c-10 -24 0 -37 52 -66 64 -35 79 -26 37 24 -18 20 -85 51 -89 42z"/>
 <path d="M665 1521 c3 -6 1 -11 -5 -11 -7 0 -10 -7 -7 -15 4 -8 2 -17 -3 -20 -20 -12 10 -45 41 -45 27 0 89 24 89 35 0 3 -27 19 -61 35 -34 17 -58 26 -54 21z"/>
 <path d="M801 1504 c-23 -50 -2 -64 23 -15 13 24 13 30 2 34 -8 3 -18 -5 -25 -19z"/>
 <path d="M862 1468 c-27 -27 -13 -48 53 -80 60 -30 66 -31 81 -16 24 24 12 43 -48 77 -59 34 -69 36 -86 19z"/>
 <path d="M1520 1447 c-57 -34 -70 -60 -38 -80 13 -9 29 -4 70 18 71 38 80 52 52 79 -21 21 -22 21 -84 -17z"/>
 <path d="M1871 1434 c-134 -29 -143 -33 -135 -57 3 -12 9 -25 13 -29 6 -7 78 9 172 38 11 3 15 12 12 24 -4 17 -2 19 13 13 17 -6 17 -5 5 10 -7 9 -14 17 -15 16 0 -1 -30 -7 -65 -15z"/>
 <path d="M1970 1429 c11 -19 50 -27 50 -10 0 12 -14 21 -40 26 -17 3 -19 1 -10 -16z"/>
 <path d="M523 1283 c-14 -3 -23 -12 -23 -23 0 -24 27 -30 146 -30 97 0 102 1 108 23 3 12 6 25 6 30 0 7 -198 8 -237 0z"/>
 <path d="M712 1010 c-40 -22 -88 -50 -108 -64 -32 -21 -34 -25 -19 -39 18 -19 28 -16 151 44 67 33 81 43 77 59 -11 40 -27 40 -101 0z"/>
 <path d="M1040 771 c0 -9 43 -51 53 -51 4 0 7 9 7 19 0 12 -11 23 -30 30 -16 5 -30 6 -30 2z"/>
 <path d="M1842 688 c-46 -12 -71 -63 -52 -108 13 -31 51 -57 80 -54 8 1 21 2 28 3 24 2 62 50 62 78 0 60 -55 98 -118 81z"/>
 </g>
<g id="layer114" fill="#0aa4f6" stroke="none">
 <path d="M1886 2101 c-3 -4 5 -17 17 -28 12 -11 38 -42 57 -67 19 -26 43 -55 53 -64 9 -9 17 -22 17 -29 0 -19 33 -83 42 -83 5 0 8 -6 6 -12 -3 -18 36 -100 55 -117 10 -7 17 -18 17 -23 0 -6 -5 -6 -14 1 -7 6 3 -30 22 -81 21 -57 43 -140 54 -213 22 -135 22 -140 7 -248 -5 -44 -7 -92 -4 -108 5 -22 3 -29 -9 -29 -10 0 -16 -9 -16 -25 0 -13 -9 -48 -21 -77 -11 -29 -23 -61 -25 -72 -2 -10 -10 -26 -17 -35 -25 -29 -42 -85 -40 -131 0 -25 -1 -33 -4 -17 -2 16 -11 27 -21 27 -8 0 -27 10 -40 23 l-25 22 17 -26 c19 -30 23 -101 8 -140 -25 -62 -125 -103 -209 -85 -67 15 -125 122 -101 186 8 21 1 32 -54 87 -40 41 -71 63 -85 63 -26 0 -30 -12 -8 -30 22 -18 18 -30 -10 -30 -18 0 -23 -4 -18 -15 5 -13 2 -14 -21 -4 -14 7 -26 15 -26 19 0 3 -6 14 -13 24 -10 14 -17 15 -40 7 -23 -9 -27 -16 -25 -38 2 -16 10 -39 17 -52 13 -23 12 -22 -25 5 -22 16 -43 35 -47 41 -4 7 -22 13 -40 13 -31 -1 -31 -1 -12 -17 16 -13 17 -15 3 -10 -10 4 -18 2 -18 -3 0 -6 -7 -10 -16 -10 -8 0 -12 -4 -9 -10 9 -14 -7 -12 -27 4 -10 7 -18 21 -18 30 0 12 -9 16 -35 16 -29 0 -35 -4 -33 -17 2 -15 -3 -17 -27 -14 -30 3 -30 3 -11 -18 35 -38 1 -22 -39 19 -29 30 -42 37 -52 29 -9 -8 -10 -16 -2 -31 10 -18 9 -19 -11 -8 -27 15 -52 -2 -32 -22 22 -22 12 -32 -11 -11 -12 11 -30 23 -40 26 -23 8 -22 37 5 86 21 39 49 53 63 31 3 -5 11 -10 17 -10 7 0 6 6 -2 15 -7 8 -22 15 -34 15 -12 0 -27 5 -33 11 -8 8 -14 5 -23 -12 -7 -12 -17 -28 -22 -33 -40 -49 -48 -60 -48 -67 0 -5 -20 -7 -45 -6 -25 1 -46 -1 -48 -6 -1 -5 -16 -7 -32 -5 l-30 3 23 21 23 21 -46 -10 c-25 -6 -44 -15 -42 -21 5 -15 -25 -46 -46 -46 -10 0 -29 -8 -44 -17 -14 -10 -33 -18 -42 -18 -56 -4 -54 -2 -49 -60 3 -30 4 -54 2 -52 -20 21 -89 121 -115 167 -26 45 -38 58 -51 54 -20 -6 -24 6 -8 22 7 7 3 25 -13 55 l-24 44 43 -3 c61 -5 111 14 159 62 45 46 72 117 61 162 -7 25 -10 26 -47 20 -22 -4 -50 -13 -62 -20 -14 -9 -70 -17 -160 -21 l-137 -7 0 -27 c0 -14 11 -44 25 -66 14 -22 27 -47 30 -55 37 -99 73 -175 82 -173 6 1 9 -5 6 -15 -7 -29 115 -200 218 -304 53 -54 104 -98 112 -98 8 0 17 -3 19 -8 1 -4 32 -29 67 -55 354 -264 953 -236 1255 58 26 25 45 40 41 33 -18 -32 151 144 199 207 50 66 141 215 130 215 -2 0 2 10 10 22 24 39 75 219 86 308 27 226 -15 467 -111 638 -65 114 -380 390 -403 353z m-1022 -1427 c32 5 40 2 74 -32 33 -33 38 -43 34 -74 -6 -56 -39 -89 -95 -95 -55 -6 -88 11 -112 58 -21 39 -12 84 23 116 25 23 25 23 6 46 -18 21 -18 21 8 -1 21 -19 33 -22 62 -18z"/>
 <path d="M1270 1986 c-14 -27 -17 -89 -6 -124 6 -19 14 -22 39 -20 32 3 32 3 35 -47 2 -27 9 -53 15 -57 7 -5 2 -8 -13 -8 -24 0 -27 -7 -59 -129 l-33 -129 -40 -6 c-116 -19 -188 -102 -188 -216 0 -84 53 -161 132 -194 46 -20 128 -21 172 -2 34 14 34 14 82 -35 41 -41 54 -48 92 -51 l44 -3 -20 -25 c-19 -24 -21 -24 -39 -7 -17 15 -45 17 -256 17 -130 0 -237 -4 -237 -8 0 -14 43 -49 87 -71 24 -12 75 -26 115 -33 91 -14 209 7 271 48 l39 26 32 -31 c18 -17 37 -31 43 -31 6 0 16 -6 22 -13 6 -8 23 -12 41 -9 l31 4 -27 29 c-22 23 -25 32 -16 41 10 10 29 -5 90 -65 68 -68 112 -95 112 -69 0 5 -36 43 -80 86 -57 56 -84 76 -97 72 -14 -4 -45 21 -122 98 l-104 104 16 35 c39 82 10 202 -62 254 -20 15 -37 28 -38 28 -2 1 13 59 32 130 19 71 32 132 29 137 -3 4 -12 8 -20 8 -8 0 -14 5 -14 11 0 6 7 9 15 5 10 -3 21 9 35 41 24 56 24 53 0 53 -11 0 -37 9 -57 20 -21 11 -46 20 -57 20 -17 0 -18 6 -12 70 7 73 -1 88 -24 46z m26 -626 c69 -34 92 -105 54 -167 -24 -40 -67 -63 -120 -63 -32 0 -48 7 -75 33 -68 62 -53 161 29 198 52 24 61 23 112 -1z"/>
 <path d="M1185 1950 c10 -11 20 -20 23 -20 3 0 -3 9 -13 20 -10 11 -20 20 -23 20 -3 0 3 -9 13 -20z"/>
 <path d="M1150 1932 c0 -10 16 -34 36 -53 l36 -34 -7 34 c-10 49 -65 93 -65 53z"/>
 <path d="M1479 1910 c-1 -5 -2 -14 -3 -19 0 -5 -4 -13 -8 -17 -5 -4 -8 -12 -8 -18 1 -15 39 36 40 52 0 14 -19 17 -21 2z"/>
 <path d="M1547 1908 c-49 -123 -48 -119 -28 -106 26 16 51 61 51 92 0 27 -14 35 -23 14z"/>
 <path d="M1156 1860 c4 -19 14 -44 23 -55 15 -19 15 -19 -2 -5 -18 13 -18 12 -11 -26 8 -49 8 -48 40 -40 25 7 26 10 21 48 -4 30 -16 51 -41 77 l-36 36 6 -35z"/>
 <path d="M862 1848 c-10 -10 -2 -22 35 -60 58 -59 45 -64 -16 -5 -24 23 -40 35 -36 27 7 -13 103 -159 111 -168 1 -2 14 4 28 13 l25 17 -49 71 c-77 112 -84 119 -98 105z"/>
 <path d="M1465 1753 c5 -15 4 -16 -6 -5 -20 19 -36 14 -41 -13 -4 -18 0 -26 14 -31 22 -7 29 -1 46 39 10 23 9 27 -4 27 -11 0 -14 -5 -9 -17z"/>
 <path d="M249 1693 c-44 -76 -46 -82 -75 -193 -14 -56 -27 -138 -30 -199 -7 -148 4 -185 43 -146 16 16 11 78 -8 101 -6 8 -4 14 6 18 10 4 15 19 15 49 0 57 16 147 40 227 11 36 20 70 21 75 1 6 10 34 20 64 22 63 22 61 10 61 -5 0 -24 -26 -42 -57z"/>
 <path d="M1696 1679 c-42 -33 -78 -65 -82 -70 -3 -5 2 -21 11 -35 l16 -25 72 64 c40 36 71 72 71 80 -1 9 4 13 12 10 8 -3 14 -1 14 4 0 11 -21 33 -31 33 -4 0 -42 -27 -83 -61z"/>
 <path d="M500 1640 c0 -5 10 -15 23 -21 22 -12 22 -12 3 10 -21 23 -26 26 -26 11z"/>
 <path d="M590 1630 c0 -5 5 -10 11 -10 8 0 7 -5 -1 -15 -7 -9 -11 -17 -8 -20 2 -2 11 4 20 14 14 16 14 19 -3 30 -12 7 -19 7 -19 1z"/>
 <path d="M689 1637 c-10 -24 0 -37 52 -66 64 -35 79 -26 37 24 -18 20 -85 51 -89 42z"/>
 <path d="M665 1521 c3 -6 1 -11 -5 -11 -7 0 -10 -7 -7 -15 4 -8 2 -17 -3 -20 -20 -12 10 -45 41 -45 27 0 89 24 89 35 0 3 -27 19 -61 35 -34 17 -58 26 -54 21z"/>
 <path d="M801 1504 c-23 -50 -2 -64 23 -15 13 24 13 30 2 34 -8 3 -18 -5 -25 -19z"/>
 <path d="M862 1468 c-27 -27 -13 -48 53 -80 60 -30 66 -31 81 -16 24 24 12 43 -48 77 -59 34 -69 36 -86 19z"/>
 <path d="M1520 1447 c-57 -34 -70 -60 -38 -80 13 -9 29 -4 70 18 71 38 80 52 52 79 -21 21 -22 21 -84 -17z"/>
 <path d="M1871 1434 c-134 -29 -143 -33 -135 -57 3 -12 9 -25 13 -29 6 -7 78 9 172 38 11 3 15 12 12 24 -4 17 -2 19 13 13 17 -6 17 -5 5 10 -7 9 -14 17 -15 16 0 -1 -30 -7 -65 -15z"/>
 <path d="M523 1283 c-14 -3 -23 -12 -23 -23 0 -24 27 -30 146 -30 97 0 102 1 108 23 3 12 6 25 6 30 0 7 -198 8 -237 0z"/>
 <path d="M1746 1135 c-4 -15 -5 -30 -2 -32 6 -6 154 -43 171 -43 6 0 15 11 21 24 11 23 9 25 -60 45 -125 36 -123 36 -130 6z"/>
 <path d="M712 1010 c-40 -22 -88 -50 -108 -64 -32 -21 -34 -25 -19 -39 18 -19 28 -16 151 44 67 33 81 43 77 59 -11 40 -27 40 -101 0z"/>
 <path d="M1040 771 c0 -9 43 -51 53 -51 4 0 7 9 7 19 0 12 -11 23 -30 30 -16 5 -30 6 -30 2z"/>
 <path d="M1858 686 c-7 -7 -20 -11 -30 -8 -12 3 -22 -6 -34 -31 -15 -30 -15 -40 -4 -67 13 -31 51 -57 80 -54 8 1 21 2 28 3 7 0 24 12 37 26 44 44 26 112 -35 133 -23 8 -33 8 -42 -2z"/>
 </g>
<g id="layer115" fill="#cd9147" stroke="none">
 <path d="M1270 1986 c-14 -27 -17 -89 -6 -124 6 -19 14 -22 39 -20 32 3 32 3 35 -47 2 -27 9 -53 15 -57 7 -5 2 -8 -13 -8 -24 0 -27 -7 -59 -129 l-33 -129 -40 -6 c-116 -19 -188 -102 -188 -216 0 -84 53 -161 132 -194 46 -20 128 -21 172 -2 34 14 34 14 82 -35 41 -41 54 -48 92 -51 l44 -3 -20 -25 c-19 -24 -21 -24 -39 -7 -17 15 -45 17 -256 17 -130 0 -237 -4 -237 -8 0 -14 43 -49 87 -71 24 -12 75 -26 115 -33 91 -14 209 7 271 48 l39 26 32 -31 c18 -17 37 -31 43 -31 6 0 16 -6 22 -13 6 -8 23 -12 41 -9 l31 4 -27 29 c-22 23 -25 32 -16 41 10 10 29 -5 90 -65 68 -68 112 -95 112 -69 0 5 -36 43 -80 86 -57 56 -84 76 -97 72 -14 -4 -45 21 -122 98 l-104 104 16 35 c39 82 10 202 -62 254 -20 15 -37 28 -38 28 -2 1 13 59 32 130 19 71 32 132 29 137 -3 4 -12 8 -20 8 -8 0 -14 5 -14 11 0 6 7 9 15 5 10 -3 21 9 35 41 24 56 24 53 0 53 -11 0 -37 9 -57 20 -21 11 -46 20 -57 20 -17 0 -18 6 -12 70 7 73 -1 88 -24 46z m26 -626 c69 -34 92 -105 54 -167 -24 -40 -67 -63 -120 -63 -32 0 -48 7 -75 33 -68 62 -53 161 29 198 52 24 61 23 112 -1z"/>
 <path d="M1185 1950 c10 -11 20 -20 23 -20 3 0 -3 9 -13 20 -10 11 -20 20 -23 20 -3 0 3 -9 13 -20z"/>
 <path d="M1150 1932 c0 -10 16 -34 36 -53 l36 -34 -7 34 c-10 49 -65 93 -65 53z"/>
 <path d="M1479 1910 c-1 -5 -2 -14 -3 -19 0 -5 -4 -13 -8 -17 -5 -4 -8 -12 -8 -18 1 -15 39 36 40 52 0 14 -19 17 -21 2z"/>
 <path d="M1547 1908 c-49 -123 -48 -119 -28 -106 26 16 51 61 51 92 0 27 -14 35 -23 14z"/>
 <path d="M1156 1860 c4 -19 14 -44 23 -55 15 -19 15 -19 -2 -5 -18 13 -18 12 -11 -26 8 -49 8 -48 40 -40 25 7 26 10 21 48 -4 30 -16 51 -41 77 l-36 36 6 -35z"/>
 <path d="M862 1848 c-10 -10 -2 -22 35 -60 58 -59 45 -64 -16 -5 -24 23 -40 35 -36 27 7 -13 103 -159 111 -168 1 -2 14 4 28 13 l25 17 -49 71 c-77 112 -84 119 -98 105z"/>
 <path d="M1465 1753 c5 -15 4 -16 -6 -5 -20 19 -36 14 -41 -13 -4 -18 0 -26 14 -31 22 -7 29 -1 46 39 10 23 9 27 -4 27 -11 0 -14 -5 -9 -17z"/>
 <path d="M1696 1679 c-42 -33 -78 -65 -82 -70 -3 -5 2 -21 11 -35 l16 -25 72 64 c40 36 71 72 71 80 -1 9 4 13 12 10 8 -3 14 -1 14 4 0 11 -21 33 -31 33 -4 0 -42 -27 -83 -61z"/>
 <path d="M500 1640 c0 -5 10 -15 23 -21 22 -12 22 -12 3 10 -21 23 -26 26 -26 11z"/>
 <path d="M590 1630 c0 -5 5 -10 11 -10 8 0 7 -5 -1 -15 -7 -9 -11 -17 -8 -20 2 -2 11 4 20 14 14 16 14 19 -3 30 -12 7 -19 7 -19 1z"/>
 <path d="M689 1637 c-10 -24 0 -37 52 -66 64 -35 79 -26 37 24 -18 20 -85 51 -89 42z"/>
 <path d="M665 1521 c3 -6 1 -11 -5 -11 -7 0 -10 -7 -7 -15 4 -8 2 -17 -3 -20 -20 -12 10 -45 41 -45 27 0 89 24 89 35 0 3 -27 19 -61 35 -34 17 -58 26 -54 21z"/>
 <path d="M801 1504 c-23 -50 -2 -64 23 -15 13 24 13 30 2 34 -8 3 -18 -5 -25 -19z"/>
 <path d="M862 1468 c-27 -27 -13 -48 53 -80 60 -30 66 -31 81 -16 24 24 12 43 -48 77 -59 34 -69 36 -86 19z"/>
 <path d="M1520 1447 c-57 -34 -70 -60 -38 -80 13 -9 29 -4 70 18 71 38 80 52 52 79 -21 21 -22 21 -84 -17z"/>
 <path d="M1871 1434 c-134 -29 -143 -33 -135 -57 3 -12 9 -25 13 -29 6 -7 78 9 172 38 11 3 15 12 12 24 -4 17 -2 19 13 13 17 -6 17 -5 5 10 -7 9 -14 17 -15 16 0 -1 -30 -7 -65 -15z"/>
 <path d="M523 1283 c-14 -3 -23 -12 -23 -23 0 -24 27 -30 146 -30 97 0 102 1 108 23 3 12 6 25 6 30 0 7 -198 8 -237 0z"/>
 <path d="M1746 1135 c-4 -15 -5 -30 -2 -32 6 -6 154 -43 171 -43 6 0 15 11 21 24 11 23 9 25 -60 45 -125 36 -123 36 -130 6z"/>
 <path d="M455 1113 c-10 -3 -28 -11 -40 -18 -12 -8 -74 -16 -157 -20 -137 -7 -138 -8 -138 -32 0 -31 31 -92 62 -120 83 -78 223 -66 297 24 34 41 56 111 47 148 -6 25 -24 30 -71 18z"/>
 <path d="M712 1010 c-40 -22 -88 -50 -108 -64 -32 -21 -34 -25 -19 -39 18 -19 28 -16 151 44 67 33 81 43 77 59 -11 40 -27 40 -101 0z"/>
 <path d="M920 829 c-7 -12 -17 -28 -22 -33 -40 -49 -48 -60 -48 -67 0 -5 -20 -7 -45 -6 -25 1 -46 -1 -48 -6 -1 -5 -16 -7 -32 -5 l-30 3 23 21 23 21 -46 -10 c-25 -6 -44 -15 -42 -21 5 -15 -25 -46 -46 -46 -10 0 -29 -8 -44 -17 -14 -10 -33 -18 -42 -18 -51 -4 -51 -4 -51 -47 0 -24 11 -69 24 -100 171 -415 911 -551 1352 -247 129 89 222 229 231 353 5 59 4 66 -12 66 -11 0 -30 10 -43 23 l-25 22 17 -26 c19 -30 23 -101 8 -140 -25 -62 -125 -103 -209 -85 -67 15 -125 122 -101 186 8 21 1 32 -54 87 -40 41 -71 63 -85 63 -26 0 -30 -12 -8 -30 22 -18 18 -30 -10 -30 -18 0 -23 -4 -18 -15 5 -13 2 -14 -21 -4 -14 7 -26 15 -26 19 0 3 -6 14 -13 24 -10 14 -17 15 -40 7 -23 -9 -27 -16 -25 -38 2 -16 10 -39 17 -52 13 -23 12 -22 -25 5 -22 16 -43 35 -47 41 -4 7 -22 13 -40 13 -31 -1 -31 -1 -12 -17 16 -13 17 -15 3 -10 -10 4 -18 2 -18 -3 0 -6 -7 -10 -16 -10 -8 0 -12 -4 -9 -10 9 -14 -7 -12 -27 4 -10 7 -18 21 -18 30 0 12 -9 16 -35 16 -29 0 -35 -4 -33 -17 2 -15 -3 -17 -27 -14 -30 3 -30 3 -11 -18 35 -38 1 -22 -39 19 -29 30 -42 37 -52 29 -9 -8 -10 -16 -2 -31 10 -18 9 -19 -11 -8 -27 15 -52 -2 -32 -22 22 -22 12 -32 -10 -11 -13 11 -31 23 -40 26 -24 8 -23 37 4 86 21 39 49 53 63 31 3 -5 11 -10 17 -10 7 0 6 6 -2 15 -7 8 -22 15 -34 15 -12 0 -27 5 -33 11 -8 8 -14 5 -23 -12z m-56 -155 c32 5 40 2 74 -32 33 -33 38 -43 34 -74 -6 -56 -39 -89 -95 -95 -55 -6 -88 11 -112 58 -21 39 -12 84 23 116 25 23 25 23 6 46 -18 21 -18 21 8 -1 21 -19 33 -22 62 -18z"/>
 <path d="M1040 771 c0 -9 43 -51 53 -51 4 0 7 9 7 19 0 12 -11 23 -30 30 -16 5 -30 6 -30 2z"/>
 <path d="M1858 686 c-7 -7 -20 -11 -30 -8 -12 3 -22 -6 -34 -31 -15 -30 -15 -40 -4 -67 13 -31 51 -57 80 -54 8 1 21 2 28 3 7 0 24 12 37 26 44 44 26 112 -35 133 -23 8 -33 8 -42 -2z"/>
 </g>
<g id="layer116" fill="#4e8fd5" stroke="none">
 <path d="M1185 1950 c10 -11 20 -20 23 -20 3 0 -3 9 -13 20 -10 11 -20 20 -23 20 -3 0 3 -9 13 -20z"/>
 <path d="M1150 1932 c0 -10 16 -34 36 -53 l36 -34 -7 34 c-10 49 -65 93 -65 53z"/>
 <path d="M1479 1910 c-1 -5 -2 -14 -3 -19 0 -5 -4 -13 -8 -17 -5 -4 -8 -12 -8 -18 1 -15 39 36 40 52 0 14 -19 17 -21 2z"/>
 <path d="M1156 1860 c4 -19 14 -44 23 -55 15 -19 15 -19 -2 -5 -18 13 -18 12 -11 -26 8 -49 8 -48 40 -40 25 7 26 10 21 48 -4 30 -16 51 -41 77 l-36 36 6 -35z"/>
 <path d="M862 1848 c-10 -10 -2 -22 35 -60 58 -59 45 -64 -16 -5 -24 23 -40 35 -36 27 7 -13 103 -159 111 -168 1 -2 14 4 28 13 l25 17 -49 71 c-77 112 -84 119 -98 105z"/>
 <path d="M1465 1753 c5 -15 4 -16 -6 -5 -20 19 -37 14 -41 -10 -3 -24 -7 -24 -73 -12 l-30 6 -34 -130 -33 -130 -40 -6 c-116 -19 -188 -102 -188 -216 0 -84 53 -161 132 -194 46 -20 128 -21 172 -2 34 14 34 14 82 -35 41 -41 54 -48 92 -51 l44 -3 -20 -25 c-19 -24 -21 -24 -39 -7 -17 15 -45 17 -256 17 -130 0 -237 -4 -237 -8 0 -14 43 -49 87 -71 24 -12 75 -26 115 -33 91 -14 209 7 271 48 l39 26 33 -32 32 -31 32 26 c17 15 31 32 31 38 0 7 -46 57 -102 114 l-101 101 16 35 c39 82 10 202 -62 254 -20 15 -37 28 -38 28 -2 1 9 44 23 96 13 52 29 111 35 131 8 31 13 36 35 35 20 -2 28 5 39 31 12 28 12 32 -2 32 -10 0 -13 -5 -8 -17z m-169 -393 c69 -34 92 -105 54 -167 -24 -40 -67 -63 -120 -63 -32 0 -48 7 -75 33 -68 62 -53 161 29 198 52 24 61 23 112 -1z"/>
 <path d="M1696 1679 c-42 -33 -78 -65 -82 -70 -3 -5 2 -21 11 -35 l16 -25 72 64 c40 36 71 72 71 80 -1 9 4 13 12 10 8 -3 14 -1 14 4 0 11 -21 33 -31 33 -4 0 -42 -27 -83 -61z"/>
 <path d="M500 1640 c0 -5 10 -15 23 -21 22 -12 22 -12 3 10 -21 23 -26 26 -26 11z"/>
 <path d="M590 1630 c0 -5 5 -10 11 -10 8 0 7 -5 -1 -15 -7 -9 -11 -17 -8 -20 2 -2 11 4 20 14 14 16 14 19 -3 30 -12 7 -19 7 -19 1z"/>
 <path d="M801 1504 c-23 -50 -2 -64 23 -15 13 24 13 30 2 34 -8 3 -18 -5 -25 -19z"/>
 <path d="M862 1468 c-27 -27 -13 -48 53 -80 60 -30 66 -31 81 -16 24 24 12 43 -48 77 -59 34 -69 36 -86 19z"/>
 <path d="M1520 1447 c-57 -34 -70 -60 -38 -80 13 -9 29 -4 70 18 71 38 80 52 52 79 -21 21 -22 21 -84 -17z"/>
 <path d="M1871 1434 c-134 -29 -143 -33 -135 -57 3 -12 9 -25 13 -29 6 -7 78 9 172 38 11 3 15 12 12 24 -4 17 -2 19 13 13 17 -6 17 -5 5 10 -7 9 -14 17 -15 16 0 -1 -30 -7 -65 -15z"/>
 <path d="M523 1283 c-14 -3 -23 -12 -23 -23 0 -24 27 -30 146 -30 97 0 102 1 108 23 3 12 6 25 6 30 0 7 -198 8 -237 0z"/>
 <path d="M1746 1135 c-4 -15 -5 -30 -2 -32 6 -6 154 -43 171 -43 6 0 15 11 21 24 11 23 9 25 -60 45 -125 36 -123 36 -130 6z"/>
 <path d="M455 1113 c-10 -3 -28 -11 -40 -18 -12 -8 -74 -16 -157 -20 -137 -7 -138 -8 -138 -32 0 -31 31 -92 62 -120 83 -78 223 -66 297 24 34 41 56 111 47 148 -6 25 -24 30 -71 18z"/>
 <path d="M712 1010 c-40 -22 -88 -50 -108 -64 -32 -21 -34 -25 -19 -39 18 -19 28 -16 151 44 67 33 81 43 77 59 -11 40 -27 40 -101 0z"/>
 <path d="M1646 923 c-10 -10 146 -163 166 -163 10 0 18 4 18 8 0 12 -155 162 -167 162 -5 0 -13 -3 -17 -7z"/>
 <path d="M920 829 c-7 -12 -17 -28 -22 -33 -40 -49 -48 -60 -48 -67 0 -5 -20 -7 -45 -6 -25 1 -46 -1 -48 -6 -1 -5 -16 -7 -32 -5 l-30 3 23 21 23 21 -46 -10 c-25 -6 -44 -15 -42 -21 5 -15 -25 -46 -46 -46 -10 0 -29 -8 -44 -17 -14 -10 -33 -18 -42 -18 -51 -4 -51 -4 -51 -47 0 -24 11 -69 24 -100 171 -415 911 -551 1352 -247 129 89 222 229 231 353 5 59 4 66 -12 66 -11 0 -30 10 -43 23 l-25 22 17 -26 c19 -30 23 -101 8 -140 -25 -62 -125 -103 -209 -85 -67 15 -125 122 -101 186 8 21 1 32 -54 87 -40 41 -71 63 -85 63 -26 0 -30 -12 -8 -30 22 -18 18 -30 -10 -30 -18 0 -23 -4 -18 -15 5 -13 2 -14 -21 -4 -14 7 -26 15 -26 19 0 3 -6 14 -13 24 -10 14 -17 15 -40 7 -23 -9 -27 -16 -25 -38 2 -16 10 -39 17 -52 13 -23 12 -22 -25 5 -22 16 -43 35 -47 41 -4 7 -22 13 -40 13 -31 -1 -31 -1 -12 -17 16 -13 17 -15 3 -10 -10 4 -18 2 -18 -3 0 -6 -7 -10 -16 -10 -8 0 -12 -4 -9 -10 9 -14 -7 -12 -27 4 -10 7 -18 21 -18 30 0 12 -9 16 -35 16 -29 0 -35 -4 -33 -17 2 -15 -3 -17 -27 -14 -30 3 -30 3 -11 -18 35 -38 1 -22 -39 19 -29 30 -42 37 -52 29 -9 -8 -10 -16 -2 -31 10 -18 9 -19 -11 -8 -27 15 -52 -2 -32 -22 22 -22 12 -32 -10 -11 -13 11 -31 23 -40 26 -24 8 -23 37 4 86 23 43 35 48 71 29 20 -10 21 -10 8 5 -7 10 -23 17 -35 17 -12 0 -27 5 -33 11 -8 8 -14 5 -23 -12z m-56 -155 c32 5 40 2 74 -32 33 -33 38 -43 34 -74 -6 -56 -39 -89 -95 -95 -55 -6 -88 11 -112 58 -21 39 -12 84 23 116 25 23 25 23 6 46 -18 21 -18 21 8 -1 21 -19 33 -22 62 -18z"/>
 <path d="M1040 771 c0 -9 43 -51 53 -51 4 0 7 9 7 19 0 12 -11 23 -30 30 -16 5 -30 6 -30 2z"/>
 <path d="M1858 686 c-7 -7 -20 -11 -30 -8 -12 3 -22 -6 -34 -31 -15 -30 -15 -40 -4 -67 13 -31 51 -57 80 -54 8 1 21 2 28 3 7 0 24 12 37 26 44 44 26 112 -35 133 -23 8 -33 8 -42 -2z"/>
 </g>
<g id="layer117" fill="#5ea1dd" stroke="none">
 <path d="M1281 1601 l-33 -129 -40 -6 c-116 -19 -188 -102 -188 -216 0 -84 53 -161 132 -194 46 -20 128 -21 172 -2 34 14 34 14 82 -35 41 -41 54 -48 92 -51 l44 -3 -20 -25 c-19 -24 -21 -24 -39 -7 -17 15 -45 17 -256 17 -130 0 -237 -4 -237 -8 0 -14 43 -49 87 -71 24 -12 75 -26 115 -33 91 -14 209 7 271 48 l39 26 33 -32 32 -31 32 26 c17 15 31 32 31 38 0 7 -46 57 -102 114 l-101 101 16 35 c39 82 10 202 -62 254 -20 15 -37 28 -38 28 -2 1 47 191 63 246 3 12 -5 20 -27 28 -61 21 -62 21 -98 -118z m15 -241 c69 -34 92 -105 54 -167 -24 -40 -67 -63 -120 -63 -32 0 -48 7 -75 33 -68 62 -53 161 29 198 52 24 61 23 112 -1z"/>
 <path d="M862 1468 c-27 -27 -13 -48 53 -80 60 -30 66 -31 81 -16 24 24 12 43 -48 77 -59 34 -69 36 -86 19z"/>
 <path d="M1520 1447 c-57 -34 -70 -60 -38 -80 13 -9 29 -4 70 18 71 38 80 52 52 79 -21 21 -22 21 -84 -17z"/>
 <path d="M470 1079 c-25 -4 -49 -4 -53 -2 -5 3 -74 2 -153 -2 -144 -7 -144 -7 -144 -31 0 -35 34 -97 69 -127 99 -83 252 -51 309 65 13 25 22 59 20 75 -3 27 -4 28 -48 22z"/>
 <path d="M970 823 c8 -3 24 -10 35 -16 18 -9 19 -9 6 6 -7 10 -23 17 -35 16 -14 0 -16 -2 -6 -6z"/>
 <path d="M1440 768 c-13 -5 -26 -10 -27 -12 -2 -1 6 -29 17 -61 22 -63 18 -75 -28 -75 -14 0 -26 9 -34 25 -8 18 -19 25 -40 25 -23 0 -28 -4 -28 -25 0 -23 -4 -25 -44 -25 l-44 0 5 60 6 60 -30 0 c-29 0 -31 -3 -43 -60 l-13 -60 -38 0 c-32 0 -39 4 -39 19 0 15 -18 31 -34 31 -10 0 -64 -60 -58 -64 15 -9 0 -73 -22 -100 -28 -36 -102 -47 -141 -22 -39 26 -60 77 -47 115 11 30 10 30 -26 36 -66 10 -97 21 -95 33 4 18 -44 14 -74 -5 -14 -10 -33 -18 -42 -18 -51 -4 -51 -4 -51 -47 0 -24 11 -69 24 -100 171 -415 911 -551 1352 -247 129 89 222 229 231 353 5 60 4 66 -14 66 -10 0 -25 6 -32 13 -11 10 -12 8 -7 -8 32 -110 -21 -197 -128 -210 -72 -9 -103 -1 -143 38 -33 31 -44 62 -46 134 -2 37 -3 38 -40 41 -36 3 -38 2 -27 -17 9 -18 8 -21 -12 -21 -13 0 -40 -3 -60 -6 l-37 -6 -26 58 c-14 33 -28 66 -33 75 -5 13 -12 15 -32 7z"/>
 <path d="M896 755 c4 -10 2 -13 -8 -10 -13 5 -68 -52 -68 -70 0 -12 73 3 81 17 5 7 9 22 9 34 0 11 5 25 12 32 9 9 7 12 -10 12 -15 0 -20 -4 -16 -15z"/>
 <path d="M1856 685 c-7 -8 -16 -11 -20 -8 -3 4 -6 -1 -6 -10 0 -10 -5 -14 -15 -11 -9 4 -19 -3 -26 -20 -22 -47 28 -115 81 -110 8 1 21 2 28 3 7 0 24 12 37 26 44 43 26 112 -35 133 -23 8 -33 8 -44 -3z"/>
 </g>
<g id="layer118" fill="#a3a3a3" stroke="none">
 <path d="M1281 1601 l-33 -129 -40 -6 c-116 -19 -188 -102 -188 -216 0 -84 53 -161 132 -194 46 -20 128 -21 172 -2 34 14 34 14 82 -35 41 -41 54 -48 92 -51 l44 -3 -20 -25 c-19 -24 -21 -24 -39 -7 -17 15 -45 17 -256 17 -130 0 -237 -4 -237 -8 0 -14 43 -49 87 -71 24 -12 75 -26 115 -33 91 -14 209 7 271 48 l39 26 33 -32 32 -31 32 26 c17 15 31 32 31 38 0 7 -46 57 -102 114 l-101 101 16 35 c39 82 10 202 -62 254 -20 15 -37 28 -38 28 -2 1 47 191 63 246 3 12 -5 20 -27 28 -61 21 -62 21 -98 -118z m15 -241 c69 -34 92 -105 54 -167 -24 -40 -67 -63 -120 -63 -32 0 -48 7 -75 33 -68 62 -53 161 29 198 52 24 61 23 112 -1z"/>
 <path d="M862 1468 c-27 -27 -13 -48 53 -80 60 -30 66 -31 81 -16 24 24 12 43 -48 77 -59 34 -69 36 -86 19z"/>
 <path d="M1520 1447 c-57 -34 -70 -60 -38 -80 13 -9 29 -4 70 18 71 38 80 52 52 79 -21 21 -22 21 -84 -17z"/>
 <path d="M193 1073 c-70 -4 -73 -5 -73 -29 0 -31 31 -92 62 -121 83 -78 232 -65 294 26 l24 36 -52 11 c-29 7 -48 12 -43 13 6 1 10 17 11 36 l1 35 -76 -2 c-42 -1 -109 -4 -148 -5z"/>
 <path d="M970 823 c8 -3 24 -10 35 -16 18 -9 19 -9 6 6 -7 10 -23 17 -35 16 -14 0 -16 -2 -6 -6z"/>
 <path d="M1850 680 c0 -6 -5 -8 -12 -4 -8 5 -9 2 -5 -10 6 -14 3 -16 -13 -11 -26 8 -38 -19 -19 -42 12 -14 12 -16 -2 -11 -13 5 -16 2 -12 -13 8 -29 57 -66 84 -63 13 1 27 3 31 3 4 1 19 12 33 26 32 33 32 74 0 109 -23 25 -63 38 -49 15 4 -8 0 -8 -15 0 -15 8 -21 9 -21 1z"/>
 <path d="M2023 675 c3 -11 8 -30 12 -42 16 -56 -51 -163 -103 -163 -13 0 -32 -5 -43 -10 -30 -17 -97 6 -151 52 -48 39 -48 40 -116 34 l-68 -6 -19 49 c-14 37 -25 51 -43 54 -31 6 -36 -10 -18 -60 13 -37 13 -42 -1 -47 -30 -12 -91 -6 -97 9 -7 19 -56 20 -56 1 0 -13 -48 -26 -99 -26 -23 0 -24 1 -18 66 l6 65 -26 -3 c-28 -3 -36 -18 -47 -89 l-6 -35 -55 -1 c-41 0 -55 3 -55 13 0 8 -10 14 -25 14 -14 0 -25 -6 -25 -13 0 -8 -11 -24 -24 -36 -27 -25 -102 -39 -133 -26 -21 10 -29 12 -44 14 -6 0 -9 8 -5 16 12 31 -59 126 -108 145 -15 5 -24 14 -21 20 10 17 -44 11 -72 -7 -14 -10 -33 -18 -42 -18 -51 -4 -51 -4 -51 -47 0 -24 11 -69 24 -100 171 -415 911 -551 1352 -247 129 89 222 229 231 353 5 60 4 66 -14 66 -10 0 -25 6 -32 13 -11 10 -12 8 -8 -8z"/>
 </g>
<g id="layer119" fill="#52b0ea" stroke="none">
 <path d="M1315 1718 c-4 -12 -29 -105 -54 -204 -10 -39 -13 -41 -65 -53 -108 -24 -176 -105 -176 -207 0 -51 26 -120 53 -142 13 -11 17 -10 24 5 12 23 10 40 -6 78 -24 57 1 137 53 173 73 50 158 35 213 -36 37 -48 41 -81 19 -152 -20 -66 -8 -90 45 -90 41 0 42 0 24 20 -16 18 -16 22 -1 60 20 49 21 119 2 163 -14 34 -60 87 -89 103 -17 10 -16 18 16 141 l35 130 -38 12 c-47 14 -50 14 -55 -1z"/>
 <path d="M866 1467 c-29 -21 -11 -50 49 -80 45 -22 60 -25 76 -16 32 17 18 41 -45 76 -68 39 -58 36 -80 20z"/>
 <path d="M1522 1448 c-61 -35 -72 -52 -49 -75 15 -15 20 -15 58 2 47 22 89 52 89 65 0 10 -29 40 -38 39 -4 0 -31 -14 -60 -31z"/>
 <path d="M193 1073 c-70 -4 -73 -5 -73 -29 0 -31 31 -92 62 -121 83 -78 232 -65 294 26 l24 36 -52 11 c-29 7 -48 12 -43 13 6 1 10 17 11 36 l1 35 -76 -2 c-42 -1 -109 -4 -148 -5z"/>
 <path d="M1534 954 l-21 -43 28 -27 c31 -30 50 -27 75 11 17 26 17 27 -22 65 l-39 38 -21 -44z"/>
 <path d="M1850 680 c0 -6 -5 -8 -12 -4 -8 5 -9 2 -5 -10 6 -14 3 -16 -13 -11 -26 8 -38 -19 -19 -42 12 -15 12 -16 -3 -10 -13 4 -16 2 -11 -11 23 -64 101 -84 148 -37 32 33 32 74 0 109 -23 25 -63 38 -49 15 4 -8 0 -8 -15 0 -15 8 -21 9 -21 1z"/>
 <path d="M2023 675 c3 -11 8 -30 12 -42 18 -65 -46 -154 -126 -172 -62 -14 -112 1 -171 51 -48 39 -48 40 -116 34 l-68 -6 -19 49 c-14 37 -25 51 -43 54 -31 6 -36 -10 -18 -60 13 -37 13 -42 -1 -47 -30 -12 -91 -6 -97 9 -7 19 -56 20 -56 1 0 -13 -48 -26 -99 -26 -23 0 -24 1 -18 66 l6 65 -26 -3 c-28 -3 -36 -18 -47 -89 l-6 -35 -55 -1 c-41 0 -55 3 -55 13 0 8 -10 14 -25 14 -15 0 -25 -6 -25 -14 0 -8 -14 -26 -31 -40 -23 -20 -42 -26 -78 -26 -26 0 -51 3 -55 8 -7 7 -11 8 -37 11 -6 0 -9 7 -6 14 6 16 -29 86 -58 114 -12 12 -34 27 -49 33 -15 5 -24 14 -21 20 10 17 -44 11 -72 -7 -14 -10 -33 -18 -42 -18 -51 -4 -51 -4 -51 -47 0 -24 11 -69 24 -100 171 -415 911 -551 1352 -247 129 89 222 229 231 353 5 60 4 66 -14 66 -10 0 -25 6 -32 13 -11 10 -12 8 -8 -8z"/>
 </g>
<g id="layer120" fill="#72b6e8" stroke="none">
 <path d="M1315 1718 c-4 -12 -29 -105 -54 -204 -10 -39 -13 -41 -65 -53 -108 -24 -176 -105 -176 -207 0 -51 26 -120 53 -142 13 -11 17 -10 24 5 12 23 10 40 -6 78 -24 57 1 137 53 173 73 50 158 35 213 -36 37 -48 41 -81 19 -152 -20 -66 -8 -90 45 -90 41 0 42 0 24 20 -16 18 -16 22 -1 60 20 49 21 119 2 163 -14 34 -60 87 -89 103 -17 10 -16 18 16 141 l35 130 -38 12 c-47 14 -50 14 -55 -1z"/>
 <path d="M866 1467 c-29 -21 -11 -50 49 -80 45 -22 60 -25 76 -16 32 17 18 41 -45 76 -68 39 -58 36 -80 20z"/>
 <path d="M1522 1448 c-61 -35 -72 -52 -49 -75 15 -15 20 -15 58 2 47 22 89 52 89 65 0 10 -29 40 -38 39 -4 0 -31 -14 -60 -31z"/>
 <path d="M320 987 c-41 -5 -96 -10 -122 -9 -27 0 -48 -3 -48 -7 0 -5 11 -20 24 -34 61 -66 168 -81 246 -35 25 14 53 39 62 56 l18 29 -38 7 c-42 7 -42 7 -142 -7z"/>
 <path d="M1534 954 l-21 -43 28 -27 c31 -30 50 -27 75 11 17 26 17 27 -22 65 l-39 38 -21 -44z"/>
 <path d="M1150 624 c-6 -14 -10 -33 -10 -42 -1 -50 -9 -58 -66 -59 -40 0 -54 3 -54 13 0 8 -10 14 -25 14 -15 0 -25 -6 -25 -14 0 -8 -14 -26 -31 -40 -23 -20 -42 -26 -78 -26 -26 0 -51 3 -55 8 -4 4 -12 8 -17 8 -5 1 -14 2 -19 3 -6 0 -10 7 -8 14 1 6 -2 23 -6 35 l-8 24 -22 -21 c-14 -13 -41 -23 -67 -26 -55 -5 -119 -15 -142 -21 -41 -12 80 -170 188 -244 69 -48 199 -105 295 -131 75 -21 107 -23 275 -23 204 0 263 10 405 68 151 60 284 171 344 285 41 77 43 93 19 112 -15 13 -16 11 -9 -16 4 -17 3 -25 -2 -18 -6 10 -17 4 -42 -22 -66 -68 -165 -66 -252 7 -48 39 -48 40 -116 34 l-68 -6 -19 49 c-14 37 -25 51 -43 54 -31 6 -36 -10 -18 -60 13 -37 13 -42 -1 -47 -30 -12 -91 -6 -97 9 -7 19 -56 20 -56 1 0 -13 -48 -26 -99 -26 -23 0 -24 1 -18 65 6 64 6 65 -19 65 -17 0 -27 -8 -34 -26z"/>
 </g>
<g id="layer121" fill="#89bfe7" stroke="none">
 <path d="M1315 1718 c-4 -12 -29 -105 -54 -204 -10 -39 -13 -41 -65 -53 -108 -24 -176 -105 -176 -207 0 -51 26 -120 53 -142 13 -11 17 -10 24 5 12 23 10 40 -6 78 -24 57 1 137 53 173 73 50 158 35 213 -36 37 -48 41 -81 19 -152 -20 -66 -8 -90 45 -90 41 0 42 0 24 20 -16 18 -16 22 -1 60 20 49 21 119 2 163 -14 34 -60 87 -89 103 -17 10 -16 18 16 141 l35 130 -38 12 c-47 14 -50 14 -55 -1z"/>
 <path d="M866 1467 c-29 -21 -11 -50 49 -80 45 -22 60 -25 76 -16 32 17 18 41 -45 76 -68 39 -58 36 -80 20z"/>
 <path d="M1522 1448 c-61 -35 -72 -52 -49 -75 15 -15 20 -15 58 2 47 22 89 52 89 65 0 10 -29 40 -38 39 -4 0 -31 -14 -60 -31z"/>
 <path d="M1534 954 l-21 -43 28 -27 c31 -30 50 -27 75 11 17 26 17 27 -22 65 l-39 38 -21 -44z"/>
 <path d="M166 962 c-12 -21 53 -69 111 -82 47 -11 120 4 153 31 24 20 24 20 3 16 -21 -5 -102 8 -133 20 -16 7 -24 9 -86 19 -25 4 -44 2 -48 -4z"/>
 <path d="M2034 547 c4 -19 3 -26 -4 -22 -5 3 -24 -7 -41 -24 -43 -44 -97 -58 -162 -42 -91 21 -110 24 -104 15 3 -5 -11 -9 -31 -9 -21 0 -53 -3 -74 -7 -33 -6 -37 -4 -48 22 -9 21 -16 26 -32 22 -16 -4 -19 -10 -14 -33 5 -26 3 -29 -22 -31 -49 -3 -97 2 -119 14 -17 8 -29 8 -45 0 -13 -6 -53 -13 -90 -17 l-68 -6 0 41 c0 33 -3 40 -20 40 -14 0 -22 -11 -30 -40 -10 -38 -13 -40 -49 -40 -21 0 -53 -3 -70 -6 -24 -5 -31 -3 -31 10 0 18 -35 22 -45 6 -7 -11 -56 -9 -162 5 -29 4 -50 11 -48 15 8 13 -27 22 -39 10 -11 -11 -59 -14 -69 -3 -4 3 -19 7 -34 8 -16 1 -41 5 -56 10 l-29 8 20 -39 c85 -166 297 -300 551 -348 116 -22 312 -21 426 3 248 51 451 184 534 349 36 70 37 84 14 103 -15 13 -16 11 -9 -14z"/>
 </g>
<g id="layer122" fill="#86caf2" stroke="none">
 <path d="M1315 1718 c-4 -12 -29 -105 -54 -204 -10 -39 -13 -41 -65 -53 -108 -24 -176 -105 -176 -207 0 -51 26 -120 53 -142 13 -11 17 -10 24 5 12 23 10 40 -6 78 -24 57 1 137 53 173 73 50 158 35 213 -36 37 -48 41 -81 19 -152 -20 -66 -8 -90 45 -90 41 0 42 0 24 20 -16 18 -16 22 -1 60 20 49 21 119 2 163 -14 34 -60 87 -89 103 -17 10 -16 18 16 141 l35 130 -38 12 c-47 14 -50 14 -55 -1z"/>
 <path d="M866 1467 c-29 -21 -11 -50 49 -80 45 -22 60 -25 76 -16 32 17 18 41 -45 76 -68 39 -58 36 -80 20z"/>
 <path d="M1522 1448 c-61 -35 -72 -52 -49 -75 15 -15 20 -15 58 2 47 22 89 52 89 65 0 10 -29 40 -38 39 -4 0 -31 -14 -60 -31z"/>
 <path d="M1534 954 l-21 -43 28 -27 c31 -30 50 -27 75 11 17 26 17 27 -22 65 l-39 38 -21 -44z"/>
 <path d="M166 962 c-14 -23 62 -74 127 -86 35 -7 53 6 25 17 -7 3 6 8 30 12 59 10 61 21 4 30 -26 4 -51 10 -57 15 -5 4 -17 8 -25 8 -8 1 -34 4 -56 8 -26 4 -44 2 -48 -4z"/>
 <path d="M2034 547 c4 -19 3 -26 -4 -22 -5 3 -24 -7 -41 -24 -43 -44 -97 -58 -162 -42 -91 21 -110 24 -104 15 3 -5 -16 -9 -42 -10 -61 -1 -103 -12 -96 -24 3 -6 -3 -10 -14 -10 -13 0 -21 -8 -23 -22 -3 -21 -10 -24 -73 -29 -38 -4 -75 -3 -81 2 -6 5 -14 6 -18 2 -4 -4 -52 -10 -107 -13 -98 -5 -99 -5 -99 18 0 31 -38 30 -46 -2 -5 -23 -8 -23 -102 -20 -53 2 -128 4 -167 4 -50 0 -66 2 -55 10 8 5 24 10 34 10 27 0 86 22 86 32 0 4 -10 9 -22 9 -89 6 -178 21 -173 29 8 12 -27 22 -39 10 -11 -11 -59 -14 -69 -3 -4 3 -19 7 -34 8 -16 1 -41 5 -56 10 l-29 8 20 -39 c85 -166 297 -300 551 -348 116 -22 312 -21 426 3 248 51 451 184 534 349 36 70 37 84 14 103 -15 13 -16 11 -9 -14z m-405 -154 c2 -2 -3 -3 -11 -3 -9 0 -19 7 -22 16 -6 15 -4 15 11 3 10 -7 20 -15 22 -16z"/>
 </g>
<g id="layer123" fill="#b1ddf5" stroke="none">
 <path d="M1315 1718 c-4 -12 -29 -105 -54 -204 -10 -39 -13 -41 -65 -53 -108 -24 -176 -105 -176 -207 0 -51 26 -120 53 -142 13 -11 17 -10 24 5 12 23 10 40 -6 78 -24 57 1 137 53 173 73 50 158 35 213 -36 37 -48 41 -81 19 -152 -20 -66 -8 -90 45 -90 41 0 42 0 24 20 -16 18 -16 22 -1 60 20 49 21 119 2 163 -14 34 -60 87 -89 103 -17 10 -16 18 16 141 l35 130 -38 12 c-47 14 -50 14 -55 -1z"/>
 <path d="M866 1467 c-29 -21 -11 -50 49 -80 45 -22 60 -25 76 -16 32 17 18 41 -45 76 -68 39 -58 36 -80 20z"/>
 <path d="M1522 1448 c-61 -35 -72 -52 -49 -75 15 -15 20 -15 58 2 47 22 89 52 89 65 0 10 -29 40 -38 39 -4 0 -31 -14 -60 -31z"/>
 <path d="M1534 954 l-21 -43 28 -27 c31 -30 50 -27 75 11 17 26 17 27 -22 65 l-39 38 -21 -44z"/>
 <path d="M1115 290 c-6 -18 -16 -20 -108 -21 -56 -1 -147 -4 -202 -8 l-100 -6 60 -36 c279 -165 690 -172 985 -18 41 22 89 51 105 64 l30 25 -126 0 c-86 0 -129 4 -137 12 -10 10 -15 10 -21 0 -6 -11 -60 -15 -230 -18 -195 -4 -221 -3 -221 11 0 22 -28 18 -35 -5z"/>
 </g>
<g id="layer124" fill="#e1e5e8" stroke="none">
 <path d="M1315 1718 c-4 -12 -29 -105 -54 -204 -10 -39 -13 -41 -65 -53 -108 -24 -176 -105 -176 -207 0 -51 26 -120 53 -142 13 -11 17 -10 24 5 12 23 10 40 -6 78 -24 57 1 137 53 173 73 50 158 35 213 -36 37 -48 41 -81 19 -152 -20 -66 -8 -90 45 -90 41 0 42 0 24 20 -16 18 -16 22 -1 60 20 49 21 119 2 163 -14 34 -60 87 -89 103 -17 10 -16 18 16 141 l35 130 -38 12 c-47 14 -50 14 -55 -1z"/>
 <path d="M866 1467 c-29 -21 -11 -50 49 -80 45 -22 60 -25 76 -16 32 17 18 41 -45 76 -68 39 -58 36 -80 20z"/>
 <path d="M1522 1448 c-61 -35 -72 -52 -49 -75 15 -15 20 -15 58 2 47 22 89 52 89 65 0 10 -29 40 -38 39 -4 0 -31 -14 -60 -31z"/>
 <path d="M1534 954 l-21 -43 28 -27 c31 -30 50 -27 75 11 17 26 17 27 -22 65 l-39 38 -21 -44z"/>
 </g>

</svg>